<svg width="173" height="43" viewBox="0 0 173 43" fill="none" xmlns="http://www.w3.org/2000/svg">
<path d="M23.7449 1.29658C24.2086 0.494202 25.065 0 25.9917 0H168.503C170.501 0 171.75 2.16342 170.75 3.89342L149.255 41.0884C148.791 41.8908 147.935 42.385 147.008 42.385H4.49681C2.4987 42.385 1.25024 40.2216 2.25 38.4916L23.7449 1.29658Z" fill="url(#paint0_linear)"/>
<g filter="url(#filter0_d)">
<path d="M45.9996 23.338L43.2636 14.32H40.7436L44.7756 26.92H47.2056L51.2376 14.32H48.7176L45.9996 23.338ZM52.599 26.92H60.573V24.832H54.957V21.484H59.835V19.396H54.957V16.408H60.573V14.32H52.599V26.92ZM64.5814 19.414C64.5814 17.308 65.4274 16.21 66.9574 16.21C68.1274 16.21 68.9554 17.038 69.1534 18.568L71.4934 18.226C71.1334 15.724 69.3874 14.104 66.8674 14.104C64.0594 14.104 62.2234 16.192 62.2234 19.126V22.114C62.2234 25.048 64.0594 27.136 66.8674 27.136C69.6934 27.136 71.5294 25.228 71.5294 22.132V20.188H66.8494V22.078H69.1714C69.0274 23.968 68.4154 25.03 66.9574 25.03C65.4274 25.03 64.5814 23.932 64.5814 21.826V19.414ZM80.6801 26.92H83.1821L79.0061 14.32H76.5941L72.4181 26.92H74.9201L75.7121 24.346H79.8881L80.6801 26.92ZM77.8001 17.416L79.2761 22.33H76.3241L77.8001 17.416ZM93.8051 22.312C95.8211 22.312 97.9271 21.052 97.9271 18.316C97.9271 15.598 95.8211 14.32 93.8051 14.32H89.1791V26.92H91.5371V22.312H93.8051ZM91.5371 20.206V16.426H93.5171C94.7051 16.426 95.5691 17.038 95.5691 18.316C95.5691 19.576 94.7051 20.206 93.5171 20.206H91.5371ZM105.905 26.92H108.407L104.231 14.32H101.819L97.6427 26.92H100.145L100.937 24.346H105.113L105.905 26.92ZM103.025 17.416L104.501 22.33H101.549L103.025 17.416ZM118.263 23.32C118.263 21.376 117.165 20.062 114.573 19.612L113.529 19.432C112.287 19.216 111.747 18.658 111.747 17.758C111.747 16.93 112.341 16.21 113.529 16.21C114.681 16.21 115.383 16.894 115.635 17.992L117.957 17.632C117.507 15.418 115.833 14.104 113.511 14.104C110.847 14.104 109.389 15.85 109.389 17.776C109.389 19.81 110.595 21.034 112.953 21.448L113.997 21.628C115.311 21.862 115.905 22.474 115.905 23.392C115.905 24.292 115.185 25.03 113.925 25.03C112.647 25.03 111.747 24.328 111.387 22.978L109.047 23.32C109.641 25.768 111.495 27.136 113.925 27.136C116.607 27.136 118.263 25.534 118.263 23.32ZM128.757 23.32C128.757 21.376 127.659 20.062 125.067 19.612L124.023 19.432C122.781 19.216 122.241 18.658 122.241 17.758C122.241 16.93 122.835 16.21 124.023 16.21C125.175 16.21 125.877 16.894 126.129 17.992L128.451 17.632C128.001 15.418 126.327 14.104 124.005 14.104C121.341 14.104 119.883 15.85 119.883 17.776C119.883 19.81 121.089 21.034 123.447 21.448L124.491 21.628C125.805 21.862 126.399 22.474 126.399 23.392C126.399 24.292 125.679 25.03 124.419 25.03C123.141 25.03 122.241 24.328 121.881 22.978L119.541 23.32C120.135 25.768 121.989 27.136 124.419 27.136C127.101 27.136 128.757 25.534 128.757 23.32Z" fill="white"/>
</g>
<defs>
<filter id="filter0_d" x="39.0141" y="14.104" width="91.4738" height="16.492" filterUnits="userSpaceOnUse" color-interpolation-filters="sRGB">
<feFlood flood-opacity="0" result="BackgroundImageFix"/>
<feColorMatrix in="SourceAlpha" type="matrix" values="0 0 0 0 0 0 0 0 0 0 0 0 0 0 0 0 0 0 127 0"/>
<feOffset dy="1.73"/>
<feGaussianBlur stdDeviation="0.865"/>
<feColorMatrix type="matrix" values="0 0 0 0 0 0 0 0 0 0 0 0 0 0 0 0 0 0 0.35 0"/>
<feBlend mode="normal" in2="BackgroundImageFix" result="effect1_dropShadow"/>
<feBlend mode="normal" in="SourceGraphic" in2="effect1_dropShadow" result="shape"/>
</filter>
<linearGradient id="paint0_linear" x1="-73.779" y1="0" x2="144.422" y2="0" gradientUnits="userSpaceOnUse">
<stop stop-color="#0675C9"/>
<stop offset="0.526042" stop-color="#5CB9FF"/>
<stop offset="1" stop-color="#073CC4"/>
</linearGradient>
</defs>
</svg>
