<?xml version="1.0" encoding="utf-8"?>
<!-- Generator: Adobe Illustrator 23.0.2, SVG Export Plug-In . SVG Version: 6.00 Build 0)  -->
<svg version="1.1" id="Layer_1" xmlns="http://www.w3.org/2000/svg" xmlns:xlink="http://www.w3.org/1999/xlink" x="0px" y="0px"
	 viewBox="0 0 173 43" style="enable-background:new 0 0 173 43;" xml:space="preserve">
<style type="text/css">
	.st0{fill:url(#SVGID_1_);}
	.st1{fill:#FFFFFF;}
</style>
<linearGradient id="SVGID_1_" gradientUnits="userSpaceOnUse" x1="-73.8223" y1="21.9496" x2="144.3786" y2="21.9496" gradientTransform="matrix(1 0 0 -1 0 43.4646)">
	<stop  offset="0" style="stop-color:#0675C9"/>
	<stop  offset="0.526" style="stop-color:#5CB9FF"/>
	<stop  offset="1" style="stop-color:#073CC4"/>
</linearGradient>
<path class="st0" d="M23.7,1.6c0.5-0.8,1.3-1.3,2.2-1.3h142.5c2,0,3.2,2.2,2.2,3.9l-21.5,37.2c-0.5,0.8-1.3,1.3-2.2,1.3H4.5
	c-2,0-3.2-2.2-2.2-3.9L23.7,1.6z"/>
<g>
	<path class="st1" d="M46,23.3l-2.7-9h-2.5l4,12.6h2.4l4-12.6h-2.5L46,23.3z M52.6,26.9h8v-2.1H55v-3.3h4.9v-2.1H55v-3h5.6v-2.1h-8
		V26.9z M64.6,19.4c0-2.1,0.8-3.2,2.4-3.2c1.2,0,2,0.8,2.2,2.4l2.3-0.3c-0.4-2.5-2.1-4.1-4.6-4.1c-2.8,0-4.6,2.1-4.6,5v3
		c0,2.9,1.8,5,4.6,5c2.8,0,4.7-1.9,4.7-5v-1.9h-4.7v1.9h2.3C69,24,68.4,25,67,25c-1.5,0-2.4-1.1-2.4-3.2V19.4z M80.7,26.9h2.5
		L79,14.3h-2.4l-4.2,12.6h2.5l0.8-2.6h4.2L80.7,26.9z M77.8,17.4l1.5,4.9h-3L77.8,17.4z M93.8,22.3c2,0,4.1-1.3,4.1-4
		c0-2.7-2.1-4-4.1-4h-4.6v12.6h2.4v-4.6H93.8z M91.5,20.2v-3.8h2c1.2,0,2.1,0.6,2.1,1.9c0,1.3-0.9,1.9-2.1,1.9H91.5z M105.9,26.9
		h2.5l-4.2-12.6h-2.4l-4.2,12.6h2.5l0.8-2.6h4.2L105.9,26.9z M103,17.4l1.5,4.9h-3L103,17.4z M118.3,23.3c0-1.9-1.1-3.3-3.7-3.7
		l-1-0.2c-1.2-0.2-1.8-0.8-1.8-1.7c0-0.8,0.6-1.5,1.8-1.5c1.2,0,1.9,0.7,2.1,1.8l2.3-0.4c-0.4-2.2-2.1-3.5-4.4-3.5
		c-2.7,0-4.1,1.7-4.1,3.7c0,2,1.2,3.3,3.6,3.7l1,0.2c1.3,0.2,1.9,0.8,1.9,1.8c0,0.9-0.7,1.6-2,1.6c-1.3,0-2.2-0.7-2.5-2.1l-2.3,0.3
		c0.6,2.4,2.4,3.8,4.9,3.8C116.6,27.1,118.3,25.5,118.3,23.3z M128.8,23.3c0-1.9-1.1-3.3-3.7-3.7l-1-0.2c-1.2-0.2-1.8-0.8-1.8-1.7
		c0-0.8,0.6-1.5,1.8-1.5c1.2,0,1.9,0.7,2.1,1.8l2.3-0.4c-0.4-2.2-2.1-3.5-4.4-3.5c-2.7,0-4.1,1.7-4.1,3.7c0,2,1.2,3.3,3.6,3.7l1,0.2
		c1.3,0.2,1.9,0.8,1.9,1.8c0,0.9-0.7,1.6-2,1.6c-1.3,0-2.2-0.7-2.5-2.1l-2.3,0.3c0.6,2.4,2.4,3.8,4.9,3.8
		C127.1,27.1,128.8,25.5,128.8,23.3z"/>
</g>
</svg>
