<?xml version="1.0" encoding="utf-8"?>
<svg version="1.1" id="Слой_1" x="0px" y="0px"
	 viewBox="0 0 28.9 23.4" style="enable-background:new 0 0 28.9 23.4;" xml:space="preserve">
<style type="text/css">
	.st0{fill:#E4E8ED;}
</style>
<g id="surface1">
	<path class="st0" d="M24,4.4c-2.3-1.9-6-2.2-6.1-2.2c-0.2,0-0.5,0.1-0.6,0.3c0,0-0.1,0.2-0.2,0.5c1.5,0.3,3.4,0.8,5.1,1.8
		c0.3,0.2,0.4,0.5,0.2,0.8c-0.1,0.2-0.3,0.3-0.5,0.3c-0.1,0-0.2,0-0.3-0.1C18.7,4,15,3.9,14.3,3.9S10,4,7,5.8C6.8,6.1,6.4,6,6.3,5.7
		C6.1,5.4,6.2,5.1,6.5,4.9c1.7-1.1,3.6-1.6,5.1-1.8c-0.1-0.3-0.2-0.5-0.2-0.5c-0.1-0.2-0.4-0.4-0.6-0.4c-0.2,0-3.8,0.3-6.1,2.2
		C3.4,5.6,1,12.2,1,17.9c0,0.1,0,0.2,0.1,0.3c1.7,3,6.3,3.7,7.3,3.8l0,0c0.2,0,0.4-0.1,0.5-0.2l1.1-1.5c-2.9-0.7-4.3-2-4.4-2.1
		c-0.2-0.2-0.3-0.6,0-0.8c0.2-0.2,0.6-0.3,0.8-0.1c0,0,2.7,2.3,8,2.3s8-2.3,8-2.3c0.2-0.2,0.6-0.2,0.8,0.1c0.2,0.2,0.2,0.6-0.1,0.8
		c-0.1,0.1-1.5,1.3-4.4,2.1l1.1,1.5c0.1,0.1,0.3,0.2,0.5,0.2l0,0c1,0,5.6-0.8,7.3-3.8c0-0.1,0.1-0.2,0.1-0.3
		C27.7,12.2,25.2,5.6,24,4.4z M10.6,15.6c-1.1,0-2-1-2-2.3s0.9-2.3,2-2.3s2,1,2,2.3S11.7,15.6,10.6,15.6z M18.1,15.6
		c-1.1,0-2-1-2-2.3s0.9-2.3,2-2.3s2,1,2,2.3S19.2,15.6,18.1,15.6z"/>
</g>
</svg>
