<?xml version="1.0" encoding="utf-8"?>
<!-- Generator: Adobe Illustrator 21.0.2, SVG Export Plug-In . SVG Version: 6.00 Build 0)  -->
<svg version="1.1" id="Слой_1" xmlns="http://www.w3.org/2000/svg" xmlns:xlink="http://www.w3.org/1999/xlink" x="0px" y="0px"
	 viewBox="0 0 26.3 22.6" style="enable-background:new 0 0 26.3 22.6;" xml:space="preserve">
<style type="text/css">
	.st0{fill:#E4E8ED;}
</style>
<g id="Row_1_5_">
	<g>
		<path class="st0" d="M17.4,13.2c-1,0-1.7,1.1-1.7,2.5s0.8,2.5,1.7,2.5c1,0,1.8-1.1,1.8-2.5C19.1,14.3,18.3,13.2,17.4,13.2z
			 M23.6,6.7c0.2-0.5,0.2-3.4-0.9-6c0,0-2.5,0.3-6.2,2.8c-0.8-0.2-2.1-0.4-3.5-0.4s-2.6,0.2-3.4,0.5C5.8,1,3.4,0.7,3.4,0.7
			c-1.1,2.7-1.1,5.6-0.9,6c-1.2,1.5-2,3.1-2,5.3c0,9.8,8.1,10,10.2,10c0.5,0,1.4,0,2.4,0s1.9,0,2.4,0c2.1,0,10.2-0.2,10.2-10
			C25.6,9.8,24.9,8.2,23.6,6.7z M13,20.9L13,20.9c-5.2,0-9.2-0.6-9.2-5.6c0-1.2,0.5-2.3,1.5-3.3c1.6-1.5,4.6-0.7,7.7-0.7l0,0l0,0
			c3.2,0,6.1-0.8,7.7,0.7c1,0.9,1.5,2,1.5,3.3C22.2,20.2,18.2,20.9,13,20.9z M8.7,13.2c-1,0-1.7,1.1-1.7,2.5s0.8,2.5,1.7,2.5
			c1,0,1.8-1.1,1.8-2.5S9.7,13.2,8.7,13.2z"/>
	</g>
</g>
</svg>
