<?xml version="1.0" encoding="utf-8"?>
<!-- Generator: Adobe Illustrator 21.0.2, SVG Export Plug-In . SVG Version: 6.00 Build 0)  -->
<svg version="1.1" id="Слой_1" xmlns="http://www.w3.org/2000/svg" xmlns:xlink="http://www.w3.org/1999/xlink" x="0px" y="0px"
	 viewBox="0 0 23.1 23.1" style="enable-background:new 0 0 23.1 23.1;" xml:space="preserve">
<style type="text/css">
	.st0{fill:#E4E8ED;}
</style>
<g id="Row_1_4_">
	<g>
		<g>
			<path class="st0" d="M5.6,3c0,1.3-0.9,2.4-2.4,2.4c-1.4,0-2.4-1-2.4-2.3c0-1.3,0.9-2.5,2.4-2.5S5.6,1.8,5.6,3z M0.8,22.4V6.7h4.8
				v15.7H0.8z"/>
			<path class="st0" d="M8.1,12.1c0-1.9-0.1-3.5-0.2-4.7h4.4l0.2,2.1h0.1c0.6-1,2.1-2.4,4.6-2.4c3.1,0,5.3,2,5.3,6.4v8.9h-4.8v-8.3
				c0-1.9-0.7-3.4-2.4-3.4c-1.3,0-1.9,1-2.3,1.9c-0.1,0.2-0.1,0.7-0.1,1.1v8.6H8.1C8.1,22.3,8.1,12.1,8.1,12.1z"/>
		</g>
	</g>
</g>
</svg>
