<?xml version="1.0" encoding="utf-8"?>
<!-- Generator: Adobe Illustrator 21.0.2, SVG Export Plug-In . SVG Version: 6.00 Build 0)  -->
<svg version="1.1" id="Слой_1" xmlns="http://www.w3.org/2000/svg" xmlns:xlink="http://www.w3.org/1999/xlink" x="0px" y="0px"
	 viewBox="0 0 25.1 21" style="enable-background:new 0 0 25.1 21;" xml:space="preserve">
<style type="text/css">
	.st0{fill:#E4E8ED;}
</style>
<path class="st0" d="M24.6,10.2c0-1.5-1.2-2.6-2.7-2.6c-0.7,0-1.4,0.3-1.8,0.7c-1.8-1.2-4.3-1.9-7-2l1.5-4.7l4,0.9v0.1
	c0,1.2,1,2.2,2.2,2.2s2.2-1,2.2-2.2s-1-2.2-2.2-2.2c-0.9,0-1.7,0.6-2,1.4l-4.3-1c-0.2,0-0.4,0.1-0.4,0.2l-1.7,5.2
	C9.6,6.2,7,7,5.1,8.2C4.7,7.8,4.1,7.5,3.3,7.5c-1.5,0-2.7,1.2-2.7,2.6c0,1,0.5,1.8,1.3,2.3c-0.1,0.3-0.1,0.6-0.1,0.9
	c0,3.9,4.8,7.1,10.7,7.1s10.7-3.2,10.7-7.1c0-0.3,0-0.5-0.1-0.8C24.1,12,24.6,11.2,24.6,10.2z M7.4,12c0-0.9,0.7-1.6,1.6-1.6
	s1.6,0.7,1.6,1.6c0,0.9-0.7,1.6-1.6,1.6S7.4,12.9,7.4,12z M16.5,16.7c-0.8,0.8-2,1.2-3.8,1.2l0,0l0,0c-1.8,0-3-0.4-3.8-1.2
	c-0.1-0.1-0.1-0.4,0-0.5s0.4-0.1,0.5,0c0.6,0.6,1.7,1,3.3,1l0,0l0,0c1.6,0,2.6-0.3,3.3-1c0.1-0.1,0.4-0.1,0.5,0
	C16.6,16.3,16.6,16.5,16.5,16.7z M16.4,13.6c-0.9,0-1.6-0.7-1.6-1.6s0.7-1.6,1.6-1.6S18,11.1,18,12C18,12.9,17.1,13.6,16.4,13.6z"/>
</svg>
