<?xml version="1.0" encoding="utf-8"?>
<!-- Generator: Adobe Illustrator 21.0.2, SVG Export Plug-In . SVG Version: 6.00 Build 0)  -->
<svg version="1.1" id="Слой_1" xmlns="http://www.w3.org/2000/svg" xmlns:xlink="http://www.w3.org/1999/xlink" x="0px" y="0px"
	 viewBox="0 0 25.3 22.7" style="enable-background:new 0 0 25.3 22.7;" xml:space="preserve">
<style type="text/css">
	.st0{fill:#E4E8ED;}
</style>
<g>
	<path class="st0" d="M19.9,22c-0.2,0-0.4-0.1-0.5-0.2l-5.9-4l-3.2,2.3c-0.2,0.2-0.6,0.2-0.9,0.1c-0.3-0.1-0.5-0.3-0.6-0.6l-1.5-6
		l-5.7-2.2C1.2,11.3,1,10.9,1,10.5s0.2-0.7,0.6-0.9L23.3,1c0.1,0,0.2-0.1,0.3-0.1h0.1c0.2,0,0.4,0.1,0.6,0.3c0,0,0,0,0,0.1
		c0.1,0.2,0.2,0.3,0.2,0.5v0.1V2l-3.7,19.2c-0.1,0.3-0.3,0.6-0.6,0.7C20.1,22,20,22,19.9,22z M14,16l5.3,3.6l2.8-15l-10.3,9.9L14,16
		C14,15.9,14,15.9,14,16z M9.6,15.2l0.7,2.7l1.5-1.1l-2-1.4C9.6,15.3,9.6,15.2,9.6,15.2z M4.4,10.5L8.4,12c0.3,0.1,0.5,0.3,0.6,0.6
		l0.5,1.9c0-0.2,0.1-0.4,0.3-0.6l9.8-9.4L4.4,10.5z"/>
</g>
</svg>
