<?xml version="1.0" encoding="utf-8"?>
<!-- Generator: Adobe Illustrator 21.0.2, SVG Export Plug-In . SVG Version: 6.00 Build 0)  -->
<svg version="1.1" id="Слой_1" xmlns="http://www.w3.org/2000/svg" xmlns:xlink="http://www.w3.org/1999/xlink" x="0px" y="0px"
	 viewBox="0 0 27.1 22.5" style="enable-background:new 0 0 27.1 22.5;" xml:space="preserve">
<style type="text/css">
	.st0{fill:#E4E8ED;}
</style>
<g id="Row_1_2_">
	<g>
		<path class="st0" d="M23.7,6.3c0,0.2,0,0.5,0,0.6c0,6.9-5.3,14.9-14.9,14.9c-3,0-5.7-0.8-8-2.3c0.3,0,0.8,0.1,1.3,0.1
			c2.5,0,4.7-0.8,6.5-2.2c-2.3,0-4.3-1.6-4.9-3.6c0.3,0.1,0.6,0.1,1,0.1c0.5,0,0.9-0.1,1.4-0.2C3.7,13.1,1.8,11,1.8,8.5
			c0,0,0,0,0-0.1C2.5,8.8,3.3,9,4.2,9C2.8,8.2,1.9,6.6,1.9,4.8c0-0.9,0.3-1.8,0.7-2.6c2.6,3.1,6.5,5.2,10.8,5.4
			c-0.1-0.4-0.1-0.7-0.1-1.2c0-2.9,2.3-5.3,5.3-5.3c1.5,0,2.9,0.6,3.8,1.7c1.2-0.3,2.3-0.6,3.3-1.3c-0.4,1.2-1.2,2.2-2.3,2.9
			c0.9-0.1,1.9-0.4,2.9-0.7C25.5,4.7,24.7,5.6,23.7,6.3z"/>
	</g>
</g>
</svg>
