<svg x="0px" y="0px"
	 viewBox="0 0 438.2 423.6" style="enable-background:new 0 0 438.2 423.6;" xml:space="preserve">
<g>
	<defs>
		<rect id="SVGID_1_" width="438.2" height="423.6"/>
	</defs>
	<clipPath id="SVGID_2_">
		<use xlink:href="#SVGID_1_"  style="overflow:visible;"/>
	</clipPath>
	<path class="st0" d="M171.7,322.5c-28.1,0-50.9,22.7-50.9,50.6c0,27.9,22.9,50.5,50.9,50.5s50.9-22.7,50.9-50.5
		C222.7,345.1,199.8,322.5,171.7,322.5 M171.7,393.6c-11.5,0-20.9-9.2-20.9-20.5c0-11.3,9.4-20.6,20.9-20.6s20.9,9.2,20.9,20.6
		C192.7,384.3,183.3,393.6,171.7,393.6"/>
	<path class="st0" d="M350.8,322.5c-28.1,0-50.9,22.7-50.9,50.6c0,27.9,22.9,50.5,50.9,50.5s50.9-22.7,50.9-50.5
		C401.8,345.1,378.9,322.5,350.8,322.5 M350.8,393.6c-11.5,0-20.9-9.2-20.9-20.5c0-11.3,9.4-20.6,20.9-20.6s20.9,9.2,20.9,20.6
		C371.8,384.3,362.4,393.6,350.8,393.6"/>
	<path class="st0" d="M423.2,40.7H106.4c-7.1-27-32.6-43.9-60.3-40.2L13,4.8C4.8,5.9-1,13.4,0.1,21.6c1.1,8.2,8.6,14,16.8,12.9
		L50,30.1c13.4-1.8,25.6,7.2,27.9,20.5l28.5,164.1l4.6,27.4c6,36.4,37.1,62.6,74,62.6h196.8c8.3,0,15-6.7,15-15c0-8.3-6.7-15-15-15
		H184.9c-22.1,0-40.8-15.6-44.4-37.4l-0.8-4.6h194.5c34,0,63.8-23,72.5-55.9l31-117.5c1.2-4.5,0.2-9.2-2.6-12.9
		C432.3,42.7,427.9,40.7,423.2,40.7 M377.7,169.3c-5.2,19.7-23.1,33.4-43.5,33.4H134.7l-22.9-132h292L377.7,169.3z"/>
</g>
</svg>
