<?xml version="1.0" encoding="utf-8"?>
<!-- Generator: Adobe Illustrator 21.0.2, SVG Export Plug-In . SVG Version: 6.00 Build 0)  -->
<svg version="1.1" id="Слой_1" xmlns="http://www.w3.org/2000/svg" xmlns:xlink="http://www.w3.org/1999/xlink" x="0px" y="0px"
	 viewBox="0 0 90 89.3" style="enable-background:new 0 0 90 89.3;" xml:space="preserve">
<style type="text/css">
	.st0{clip-path:url(#SVGID_2_);}
</style>
<g>
	<defs>
		<rect id="SVGID_1_" width="90" height="89.3"/>
	</defs>
	<clipPath id="SVGID_2_">
		<use xlink:href="#SVGID_1_"  style="overflow:visible;"/>
	</clipPath>
	<path class="st0" d="M44.1,37V7.1C44.1,3.2,40.9,0,37,0H7.1C3.2,0,0,3.2,0,7.1V37c0,3.9,3.2,7.1,7.1,7.1H37
		C40.9,44.1,44.1,40.9,44.1,37 M4,37V7.1C4,5.4,5.4,4,7.1,4H37c1.7,0,3.1,1.4,3.1,3.1V37c0,1.7-1.4,3.1-3.1,3.1H7.1
		C5.4,40.1,4,38.7,4,37"/>
	<path class="st0" d="M13.6,26.4c2.2,0,4.1,1.8,4.1,4.1c0,2.2-1.8,4.1-4.1,4.1s-4.1-1.8-4.1-4.1C9.6,28.2,11.4,26.4,13.6,26.4"/>
	<path class="st0" d="M30.4,9.6c2.2,0,4.1,1.8,4.1,4.1c0,2.2-1.8,4.1-4.1,4.1c-2.2,0-4.1-1.8-4.1-4.1C26.4,11.4,28.2,9.6,30.4,9.6"
		/>
	<path class="st0" d="M66.8,34.9c-1.3-1.3-3.1-2.1-5-2.1c-1.9,0-3.7,0.7-5,2.1L35.6,56.1c-2.8,2.8-2.8,7.2,0,10l21.2,21.2
		c1.3,1.3,3.1,2.1,5,2.1s3.7-0.7,5-2.1l21.2-21.2c1.3-1.3,2.1-3.1,2.1-5c0-1.9-0.7-3.7-2.1-5L66.8,34.9z M85.1,63.2L63.9,84.4
		c-1.2,1.2-3.2,1.2-4.3,0L38.4,63.2c-1.2-1.2-1.2-3.1,0-4.3l21.2-21.2c0.6-0.6,1.4-0.9,2.2-0.9c0.8,0,1.6,0.3,2.2,0.9l21.2,21.2
		c0.6,0.6,0.9,1.3,0.9,2.2C86,61.9,85.7,62.7,85.1,63.2"/>
	<path class="st0" d="M48,59.9c-1,0-1.9,0.4-2.6,1.1c-1.4,1.4-1.4,3.7,0,5.1c0.7,0.7,1.6,1.1,2.6,1.1c1,0,1.9-0.4,2.6-1.1
		c1.4-1.4,1.4-3.7,0-5.1C49.9,60.2,49,59.9,48,59.9"/>
	<path class="st0" d="M64.2,50.9c1,0,1.9-0.4,2.6-1.1c1.4-1.4,1.4-3.7,0-5.1c-0.7-0.7-1.6-1.1-2.6-1.1c-1,0-1.9,0.4-2.6,1.1
		c-1.4,1.4-1.4,3.7,0,5.1C62.3,50.5,63.2,50.9,64.2,50.9"/>
	<path class="st0" d="M58.7,58c0.7-0.7,1.1-1.6,1.1-2.6c0-1-0.4-1.9-1.1-2.6c-0.7-0.7-1.6-1.1-2.6-1.1c-1,0-1.9,0.4-2.6,1.1
		c-0.7,0.7-1.1,1.6-1.1,2.6c0,1,0.4,1.9,1.1,2.6c0.7,0.7,1.6,1.1,2.6,1.1C57.1,59,58,58.6,58.7,58"/>
	<path class="st0" d="M59.3,71.2c-1,0-1.9,0.4-2.6,1.1c-1.4,1.4-1.4,3.7,0,5.1c0.7,0.7,1.6,1.1,2.6,1.1c1,0,1.9-0.4,2.6-1.1
		c0.7-0.7,1.1-1.6,1.1-2.6s-0.4-1.9-1.1-2.6C61.2,71.6,60.3,71.2,59.3,71.2"/>
	<path class="st0" d="M75.5,55c-1,0-1.9,0.4-2.6,1.1c-1.4,1.4-1.4,3.7,0,5.1c0.7,0.7,1.6,1.1,2.6,1.1c1,0,1.9-0.4,2.6-1.1
		c1.4-1.4,1.4-3.7,0-5.1C77.4,55.4,76.5,55,75.5,55"/>
	<path class="st0" d="M67.4,63.1c-1,0-1.9,0.4-2.6,1.1c-1.4,1.4-1.4,3.7,0,5.1c0.7,0.7,1.6,1.1,2.6,1.1c1,0,1.9-0.4,2.6-1.1
		c1.4-1.4,1.4-3.7,0-5.1C69.3,63.5,68.4,63.1,67.4,63.1"/>
</g>
</svg>
