<svg x="0px" y="0px"viewBox="0 0 76.6 72" style="enable-background:new 0 0 76.6 72;" xml:space="preserve"> <style type="text/css"> </style> <g> <defs> <rect id="SVGID_1_" y="0" width="76.6" height="72"/> </defs> <clipPath id="SVGID_2_"> <use xlink:href="#SVGID_1_"  style="overflow:visible;"/> </clipPath> <path class="st0" d="M71.1,19.4v-5.5c0-4.7-3.9-8.6-8.6-8.6h-3.4l-1.4-3.9c-0.2-0.5-0.6-0.9-1.1-1.2c-0.5-0.2-1.1-0.2-1.6,0 L42.3,5.4c-0.2-0.1-0.4-0.1-0.6-0.1H8.6c-4.7,0-8.4,3.6-8.6,8.3c0,0,0,0,0,0c0,0,0,0,0,0.1V63c0,5,4,9,9,9h58.6c5,0,9-4,9-9V27.7 C76.6,23.9,74.4,20.7,71.1,19.4 M62.5,9.3c2.5,0,4.6,2.1,4.6,4.6v4.8h-3.2l-3.3-9.4H62.5z M59.6,18.7H20.3l34.4-14L59.6,18.7z M8.6,9.3h24.1l-21.8,8.9c-0.3,0.1-0.5,0.3-0.7,0.5H9c-2.7,0-5-2.2-5-5C4.1,11.2,6.1,9.3,8.6,9.3 M72.6,63c0,2.8-2.2,5-5,5H9 c-2.8,0-5-2.2-5-5V21.1c1.4,1,3.2,1.5,5,1.5h58.6c0.3,0,0.5,0,0.8,0.1c0.2,0.1,0.3,0.1,0.5,0.1c2.1,0.6,3.7,2.5,3.7,4.8L72.6,63 L72.6,63z"/> <path class="st0" d="M60.2,36.8c-4.1,0-7.4,3.3-7.4,7.4s3.3,7.4,7.4,7.4c4.1,0,7.4-3.3,7.4-7.4C67.6,40.1,64.3,36.8,60.2,36.8 M60.2,47.6c-1.9,0-3.4-1.5-3.4-3.4c0-1.9,1.5-3.4,3.4-3.4c1.9,0,3.4,1.5,3.4,3.4C63.6,46.1,62.1,47.6,60.2,47.6"/> </g> </svg>
