<?xml version="1.0" encoding="utf-8"?>
<!-- Generator: Adobe Illustrator 22.0.0, SVG Export Plug-In . SVG Version: 6.00 Build 0)  -->
<svg version="1.1" id="Ñëîé_1" xmlns="http://www.w3.org/2000/svg" xmlns:xlink="http://www.w3.org/1999/xlink" x="0px" y="0px"
	 viewBox="0 0 128.1 23.3" style="enable-background:new 0 0 128.1 23.3;" xml:space="preserve">
<style type="text/css">
	.st0{fill:#F53743;}
</style>
<g>
	<path d="M33.9,16.9h6.9v1.9h-8.9V3.9h8.8v1.9h-6.8v4.6h6.3v1.9h-6.3V16.9z"/>
	<path d="M46.7,12.6c1.7,0.4,3.9,1,3.9,3.3c0,1-0.4,1.7-1.1,2.3s-1.7,0.9-2.9,0.9c-2.1,0-3.6-1-4.2-2.5l1.6-0.9
		c0.3,1,1.3,1.7,2.6,1.7c1.2,0,2.1-0.4,2.1-1.4c0-0.8-0.9-1.3-2.1-1.6c-1.7-0.4-3.9-1-3.9-3.3c0-0.9,0.4-1.7,1.1-2.3
		c0.7-0.6,1.6-0.9,2.7-0.9c1.7,0,3.1,0.8,3.8,2.2L48.8,11c-0.4-0.9-1.1-1.4-2.3-1.4c-1,0-1.9,0.5-1.9,1.4
		C44.6,11.9,45.5,12.3,46.7,12.6z"/>
	<path d="M62.4,9.5c1,1.1,1.6,2.4,1.6,4c0,1.6-0.5,2.9-1.6,4c-1,1.1-2.3,1.6-3.8,1.6c-1.8,0-3.1-0.7-4-2.1v6.1h-1.9V8.2h1.9V10
		c0.9-1.4,2.3-2.1,4-2.1C60.1,7.9,61.4,8.4,62.4,9.5z M61.1,16.2c0.7-0.7,1.1-1.6,1.1-2.7s-0.4-2-1.1-2.7c-0.7-0.7-1.6-1.1-2.7-1.1
		c-1.1,0-2,0.4-2.7,1.1c-0.7,0.7-1.1,1.6-1.1,2.7s0.4,2,1.1,2.7c0.7,0.7,1.6,1.1,2.7,1.1C59.4,17.3,60.3,16.9,61.1,16.2z"/>
	<path d="M71.2,19.1c-1.6,0-2.9-0.5-4-1.6s-1.6-2.4-1.6-4c0-1.6,0.5-2.9,1.6-4c1.1-1.1,2.4-1.6,4-1.6s2.9,0.5,4,1.6
		c1.1,1.1,1.6,2.4,1.6,4c0,1.6-0.6,2.9-1.6,4S72.8,19.1,71.2,19.1z M73.9,16.2c0.7-0.7,1.1-1.6,1.1-2.7s-0.4-2-1.1-2.7
		c-0.7-0.7-1.6-1.1-2.7-1.1c-1,0-1.9,0.4-2.7,1.1c-0.7,0.7-1.1,1.6-1.1,2.7s0.4,2,1.1,2.7c0.7,0.7,1.6,1.1,2.7,1.1
		C72.3,17.3,73.2,16.9,73.9,16.2z"/>
	<path d="M80.9,10c0.6-1.3,1.7-2,3.3-2v1.9c-0.9,0-1.7,0.2-2.3,0.7c-0.7,0.5-1,1.4-1,2.5v5.6H79V8.2h1.9V10z"/>
	<path d="M92,10h-2.8v5.8c0,1.6,0.9,1.5,2.8,1.4v1.7c-3.2,0.4-4.7-0.4-4.7-3.1V10h-2.1V8.2h2.1V5.7l1.9-0.6v3H92V10z"/>
	<path d="M103.9,9.5c1,1.1,1.6,2.4,1.6,4c0,1.6-0.5,2.9-1.6,4s-2.3,1.6-3.8,1.6c-1.8,0-3.1-0.7-4-2.1v1.8h-1.9V3.9h1.9V10
		c0.9-1.4,2.3-2.1,4-2.1C101.6,7.9,102.9,8.4,103.9,9.5z M102.5,16.2c0.7-0.7,1.1-1.6,1.1-2.7s-0.4-2-1.1-2.7
		c-0.7-0.7-1.6-1.1-2.7-1.1c-1.1,0-2,0.4-2.7,1.1c-0.7,0.7-1.1,1.6-1.1,2.7s0.4,2,1.1,2.7c0.7,0.7,1.6,1.1,2.7,1.1
		C100.9,17.3,101.8,16.9,102.5,16.2z"/>
	<path d="M107.4,5c0-0.7,0.6-1.3,1.3-1.3c0.7,0,1.2,0.6,1.2,1.3s-0.6,1.2-1.2,1.2C107.9,6.2,107.4,5.7,107.4,5z M107.7,18.8V8.2h1.9
		v10.6H107.7z"/>
	<path d="M118.1,10h-2.8v5.8c0,1.6,0.9,1.5,2.8,1.4v1.7c-3.2,0.4-4.7-0.4-4.7-3.1V10h-2.1V8.2h2.1V5.7l1.9-0.6v3h2.8V10z"/>
	<path d="M123.5,12.6c1.7,0.4,3.9,1,3.8,3.3c0,1-0.4,1.7-1.1,2.3c-0.7,0.6-1.7,0.9-2.9,0.9c-2.1,0-3.6-1-4.2-2.5l1.6-0.9
		c0.3,1,1.3,1.7,2.6,1.7c1.2,0,2.1-0.4,2.1-1.4c0-0.8-0.9-1.3-2.1-1.6c-1.7-0.4-3.9-1-3.9-3.3c0-0.9,0.4-1.7,1.1-2.3
		c0.7-0.6,1.6-0.9,2.7-0.9c1.7,0,3.1,0.8,3.8,2.2l-1.6,0.9c-0.4-0.9-1.1-1.4-2.3-1.4c-1,0-1.9,0.5-1.9,1.4
		C121.4,11.9,122.4,12.3,123.5,12.6z"/>
</g>
<g>
	<path class="st0" d="M16.4,10.9"/>
	<path class="st0" d="M21.7,12.2c-1.8,0-3.3,1.5-3.3,3.3s1.5,3.3,3.3,3.3s3.3-1.5,3.3-3.3S23.5,12.2,21.7,12.2z"/>
	<path class="st0" d="M17.4,7.4L17.4,7.4L17.4,7.4z"/>
	<path class="st0" d="M20.4,8.2c-0.1-0.6-0.5-1.2-1-1.6c-1.1-0.8-2.7-0.5-3.5,0.6l-3.4,4.9l0,0c-0.3,0.4-0.8,0.5-1.2,0.2l0,0
		c-0.4-0.3-0.5-0.8-0.2-1.2l4.9-7c0.4-0.6,0.5-1.2,0.4-1.9c-0.1-0.6-0.5-1.2-1-1.6c-1.1-0.8-2.7-0.5-3.5,0.6L2.3,14.8
		c-0.4,0.6-0.5,1.2-0.4,1.9c0.1,0.6,0.5,1.2,1,1.6c1.1,0.8,2.7,0.5,3.5-0.6l2.7-3.8c0.3-0.4,0.8-0.5,1.2-0.2l0,0
		c0.4,0.3,0.5,0.8,0.2,1.2l0,0l0,0c-0.4,0.6-0.5,1.2-0.4,1.9c0.1,0.6,0.5,1.2,1,1.6c1.1,0.8,2.7,0.5,3.5-0.6l3.4-4.9l1.9-2.7
		C20.3,9.5,20.5,8.8,20.4,8.2z"/>
</g>
</svg>
