<?xml version="1.0" encoding="utf-8"?>
<!-- Generator: Adobe Illustrator 22.0.0, SVG Export Plug-In . SVG Version: 6.00 Build 0)  -->
<svg version="1.1" id="Layer_1" xmlns="http://www.w3.org/2000/svg" xmlns:xlink="http://www.w3.org/1999/xlink" x="0px" y="0px"
	 viewBox="0 0 96 93" style="enable-background:new 0 0 96 93;" xml:space="preserve">
<style type="text/css">
	.st0{display:none;}
	.st1{display:inline;fill:#F53743;}
	.st2{display:none;fill:#F53743;}
	.st3{fill:#F53743;}
</style>
<g class="st0">
	<path class="st1" d="M17.8,64.6c0,2.8,2.3,5.1,5.1,5.1h50.2c2.8,0,5.1-2.3,5.1-5.1V34.5H17.8V64.6z M42.8,49.9h14.7
		c0.8,0,1.5,0.7,1.5,1.5c0,0.8-0.7,1.5-1.5,1.5H42.8c-0.8,0-1.5-0.7-1.5-1.5C41.3,50.6,42,49.9,42.8,49.9z M25.2,43.1
		c-0.6-0.6-0.6-1.5,0-2c0.6-0.6,1.5-0.6,2,0l9.3,9.3c0.3,0.3,0.4,0.7,0.4,1s-0.1,0.7-0.4,1l-9.3,9.3c-0.3,0.3-0.7,0.4-1,0.4
		s-0.7-0.1-1-0.4c-0.6-0.6-0.6-1.5,0-2l8.2-8.3L25.2,43.1z"/>
	<path class="st1" d="M73.2,23.3H22.9c-2.8,0-5.1,2.3-5.1,5.1v3.2h60.4v-3.2C78.3,25.6,75.9,23.3,73.2,23.3z M22.3,30
		c-1.4,0-2.5-1.1-2.5-2.5s1.1-2.5,2.5-2.5s2.5,1.1,2.5,2.5S23.7,30,22.3,30z M29.8,30c-1.4,0-2.5-1.1-2.5-2.5s1.1-2.5,2.5-2.5
		s2.5,1.1,2.5,2.5S31.2,30,29.8,30z M37.4,30c-1.4,0-2.5-1.1-2.5-2.5S36,25,37.4,25s2.5,1.1,2.5,2.5S38.8,30,37.4,30z"/>
</g>
<g class="st0">
	<polygon class="st1" points="48.1,4.9 22.4,46.5 48.1,62.5 73.7,46.5 	"/>
	<polygon class="st1" points="73.7,52 48.1,88.1 22.4,52 48.1,67.5 	"/>
</g>
<g class="st0">
	<path class="st1" d="M73.4,23.5h-0.8h-1.1h-1.1H62H31.4h-4H24h-0.6h-2.1c-1.1,0-2.1,0.5-2.8,1.3c-0.3,0.4-0.5,0.8-0.6,1.3
		c-0.1,0.3-0.1,0.6-0.1,0.9v0.4v4v34.8c0,1.9,1.6,3.5,3.5,3.5h52.1c1.9,0,3.5-1.6,3.5-3.5v-9.8H56c-3.3,0-6-2.7-6-6v-3.2v-1.1V45
		v-2.4c0-1.6,0.6-3.1,1.7-4.2c0.9-1,2.2-1.6,3.6-1.8c0.2,0,0.5,0,0.7,0h18H75h1.1h0.7V27C76.9,25.1,75.3,23.5,73.4,23.5z"/>
	<path class="st1" d="M79.4,40c-0.4-0.3-0.8-0.6-1.2-0.7c-0.4-0.1-0.7-0.2-1.1-0.2h-0.1h-0.1h-1.1h-3.9H56c-1.9,0-3.5,1.6-3.5,3.5
		v1.8v1.1v1.1v3.9c0,1.9,1.6,3.5,3.5,3.5h20.9H77c0.4,0,0.8-0.1,1.1-0.2c0.5-0.2,0.9-0.4,1.2-0.7c0.7-0.6,1.1-1.6,1.1-2.6v-7.8
		C80.5,41.6,80.1,40.6,79.4,40z M63.3,47.2c0,1-0.8,1.8-1.8,1.8h-1.2c-1,0-1.8-0.8-1.8-1.8v-1.2c0-0.6,0.3-1.1,0.7-1.4
		c0.3-0.2,0.7-0.4,1.1-0.4h0.3h0.9c1,0,1.8,0.8,1.8,1.8L63.3,47.2L63.3,47.2z"/>
</g>
<path class="st2" d="M79.2,38.9c0-0.1,0-0.1,0-0.2s0-0.1,0-0.2c0-7.6-6.1-13.7-13.7-13.7c-3.1,0-5.3,1.1-7.6,2.8
	c-3-0.8-4.4-1.6-8.4-1.8h-2.5c-4,0.2-5.5,0.9-8.4,1.8c-2.3-1.8-4.5-2.8-7.6-2.8c-7.6,0-13.7,6.1-13.7,13.7c0,0.1,0,0.1,0,0.2
	s0,0.1,0,0.2l-1.4,22.4c0,3.5,2.9,6.4,6.4,6.4h4.5l9.7-15.4H47h2.5h10.6l9.7,15.4h4.5c3.5,0,6.4-2.9,6.4-6.4L79.2,38.9z M33.6,43.1
	h-4.2v4.2h-4.4v-4.2h-4.2v-4.4h4.2v-4.2h4.4v4.2h4.2V43.1z M67.2,32.5c1.7,0,3,1.3,3,3s-1.3,3-3,3s-3-1.3-3-3S65.6,32.5,67.2,32.5z
	 M59.4,40.2c0-1.7,1.3-3,3-3c1.7,0,3,1.3,3,3s-1.3,3-3,3C60.8,43.2,59.4,41.9,59.4,40.2z M67.2,48c-1.7,0-3-1.3-3-3c0-1.7,1.3-3,3-3
	c1.7,0,3,1.3,3,3S68.8,48,67.2,48z M72,43.2c-1.7,0-3-1.3-3-3c0-1.7,1.3-3,3-3s3,1.3,3,3C75,41.9,73.6,43.2,72,43.2z"/>
<g class="st0">
	<path class="st1" d="M48.3,41.2c10.3,0,18.8-8.4,18.8-18.8c0-10.3-8.5-18.7-18.8-18.7s-18.8,8.4-18.8,18.8
		C29.5,32.8,37.9,41.2,48.3,41.2z"/>
	<path class="st1" d="M64.6,42.3c-0.6,0-1.2,0.2-1.6,0.6c-3.9,3.8-9.2,5.9-14.8,5.9s-10.7-2.1-14.8-5.9c-0.4-0.4-1.1-0.6-1.6-0.6
		c-11.6,0.8-20.7,10.6-20.7,22.3v10.3c0,7.6,6.2,13.8,13.8,13.8h46.4c7.6,0,13.8-6.2,13.8-13.8V64.6C85.3,52.9,76.2,43.1,64.6,42.3z
		 M39.4,72.3c0.8,0.8,0.8,2.1,0,3c-0.4,0.4-1,0.6-1.5,0.6s-1.1-0.2-1.5-0.6L31,69.9c-0.8-0.8-0.8-2.1,0-3l5.4-5.4
		c0.8-0.8,2.1-0.8,3,0s0.8,2.2,0,3.1l-3.9,3.9L39.4,72.3z M53.7,58.5l-5.9,21.1c-0.2,1-1.1,1.6-2,1.6c-0.1,0-0.3,0-0.5-0.1
		c-1.2-0.3-1.8-1.5-1.5-2.7l5.9-21.1c0.3-1.2,1.5-1.8,2.7-1.5C53.4,56.2,54,57.4,53.7,58.5z M65.5,70L60,75.4
		c-0.4,0.4-1,0.6-1.5,0.6s-1.1-0.2-1.5-0.6c-0.8-0.8-0.8-2.1,0-3l3.9-3.9l-3.9-4c-0.8-0.8-0.8-2.1,0-3s2.1-0.8,3,0l5.4,5.5
		C66.3,67.9,66.3,69.1,65.5,70z"/>
</g>
<g class="st0">
	<path class="st1" d="M23.7,47.9h48.8c12,0,16.7-3.1,17.7-12.2v-6.3c0-5.1-2-7.1-7.1-7.1h-70c-5.1,0-7.1,2-7.1,7.1v6.3
		C7,44.9,11.8,47.9,23.7,47.9z"/>
	<path class="st1" d="M72.6,51.4H56.2V64c0,1.9-0.7,2.6-2.6,2.6H42.8c-1.9,0-2.6-0.7-2.6-2.6V51.4H23.7c-7.8,0-13.9-1.2-17.7-5.8
		v31.4c0,5.1,2,7.1,7.1,7.1h70.1c5.1,0,7.1-2,7.1-7.1V45.6C86.6,50.2,80.3,51.4,72.6,51.4z"/>
	<path class="st1" d="M44.6,51.4c-0.7,0-0.8,0.3-0.8,0.8v9.8c0,0.7,0.3,0.8,0.8,0.8h7.2c0.7,0,0.8-0.3,0.8-0.8v-9.7
		c0-0.7-0.3-0.8-0.8-0.8L44.6,51.4L44.6,51.4z"/>
	<path class="st1" d="M44.8,13.1h6.7c5.8,0,6.3,0.9,6.3,6.7H64C64,9,63.3,8.2,52.4,8.2h-8.5C33,8.2,32.3,8.9,32.3,19.8h6.2
		C38.5,14,39,13.1,44.8,13.1z"/>
</g>
<g class="st0">
	<path class="st1" d="M76.5,26.9l-9-9c-1.6-1.6-2.8-1.6-4.5,0l-9.6,9.7c-1.6,1.6-1.6,2.8,0,4.5l9,9c1.6,1.6,2.8,1.6,4.5,0l9.7-9.7
		C78.1,29.7,78.1,28.5,76.5,26.9z"/>
	<path class="st1" d="M76.9,23.6c0.2,0.2,0.5,0.2,0.6,0l2.1-2.2c1-1.1,1-2,0-3.1c-0.7-0.7-1.1-1.2-1.6-1.7c-0.5-0.5-1-1-1.7-1.6
		c-1.1-1-2-1-3.1,0l-2.3,2c-0.2,0.2-0.2,0.5,0,0.6L76.9,23.6z"/>
	<path class="st1" d="M21.7,6.2C27,9.3,38.1,16,50,25.9c0.2,0.2,0.5,0.2,0.6,0l9.2-9.3c0.2-0.2,0.2-0.5-0.1-0.5
		C44,5.3,28.7,4.8,21.8,5.1C20.5,5.1,20.4,5.6,21.7,6.2z"/>
	<path class="st1" d="M78.5,34.5c-0.1-0.2-0.4-0.2-0.5,0l-9.3,9.2c-0.2,0.2-0.2,0.5,0,0.6c9.8,11.9,16.5,23.1,19.6,28.5
		c0.7,1.2,1.1,1.1,1.2-0.3C89.6,65.7,89.1,50.4,78.5,34.5z"/>
	<path class="st1" d="M53.1,35.5c-0.2-0.2-0.5-0.2-0.6,0L9.8,74.2c-0.1,0.1-0.1,0.1-0.2,0.2c-3.5,3.5-3.5,7,0,10.3
		c3.5,3.4,7,3.5,10.3,0c0.1-0.1,0.1-0.2,0.2-0.2c0,0,35.2-38.5,38.8-42.6c0.2-0.2,0.2-0.5,0-0.6L53.1,35.5z"/>
</g>
<path class="st3" d="M30.2,82.1c10.6,0,20.6-3.9,28.4-10.9c1-1,1-2.5,0.1-3.4c-0.2-0.2-0.4-0.3-0.6-0.5c-4.4-2.4-9-4.2-13.9-5.2
	c-0.1,0-0.2-0.1-0.2-0.2V59c1.7-2.2,2.9-4.7,3.7-7.3c1.9-1.9,2.8-4.8,3.2-6.5c0.8-2.6,1.5-6.4-0.6-9l-0.1-0.1c1-4.8,2.2-16-6.3-21.6
	c1-1,1.5-2.4,1.5-3.8c0-0.1-0.1-0.3-0.2-0.4c-0.1-0.1-0.3-0.1-0.4-0.1c-0.1,0-10.7,1.2-15.9,0.2s-11,2.9-12.3,6.9
	c-2,0.3-3.8,1.2-5,2.9c-2.3,2.9-3,7.4-2.1,13.5c0.1,0.8,0.2,1.5,0.3,2.4L10,36.2c-2,2.7-1.3,6.5-0.6,9c0.5,1.6,1.3,4.6,3.2,6.5
	c0.8,2.7,2,5.1,3.7,7.4V62c0,0.1-0.1,0.2-0.2,0.2c-4.8,1-9.5,2.9-13.9,5.2c-1.1,0.7-1.6,2.2-1,3.3c0.1,0.2,0.3,0.4,0.5,0.6
	C9.6,78.2,19.8,82.1,30.2,82.1z M30.2,72.3c-4.5,0.1-8.7-2.1-11.4-5.7c1.1-0.7,2.1-1.7,2.5-2.9c1.1,0.8,2.5,1.4,3.8,1.9
	c3.3,1.1,6.9,1.1,10.3,0c1.3-0.5,2.7-1.1,3.8-1.9c0.5,1.2,1.3,2.4,2.5,3C39,70.3,34.8,72.3,30.2,72.3z M14,43.8
	c-1-3.3-0.6-4.5-0.2-4.9c0.2-0.3,0.6-0.5,1-0.4h0.2c0.3,0,0.5-0.2,0.6-0.5c0-0.1,0.6-7.2,4.8-9.8c2.1-1.3,4.8-1.2,8.1,0.1
	c6.7,2.9,11.5,2.7,14.5,2c3.4,2.6,2.5,6.6,2.2,7.3v0.1c-0.1,0.2,0,0.4,0.1,0.5c0.1,0.1,0.3,0.2,0.5,0.2c0.4-0.1,0.9,0.1,1.1,0.4
	c0.3,0.4,0.8,1.6-0.2,4.9c-1.2,4.3-2.2,4.7-2.5,4.7c-0.2,0-0.4,0.2-0.5,0.5c-0.7,4.6-4.3,10.2-9.8,12.1c-2.3,0.9-4.8,0.9-7,0
	c-5.7-2-9.1-7.7-9.8-12.2c0-0.2-0.2-0.4-0.5-0.5C16.2,48.5,15.2,48.1,14,43.8z M61,56.6H77c10.2,0,18.3-8.2,18.3-18.3
	S87.2,19.9,77,19.9c-10.1,0-18.3,8.2-18.3,18.3l0,0v16.1C58.7,55.5,59.6,56.6,61,56.6L61,56.6z M70.2,35.7h4.3v-4.3
	c0-1.4,1.1-2.6,2.6-2.6s2.6,1.1,2.6,2.6v4.3h4.3c1.4,0,2.6,1.1,2.6,2.6l0,0l0,0c0,1.4-1.1,2.6-2.6,2.6l0,0h-4.3v4.3
	c0,1.4-1.1,2.6-2.6,2.6s-2.6-1.1-2.6-2.6v-4.3h-4.3c-1.4,0-2.6-1.1-2.6-2.6C67.5,36.8,68.7,35.7,70.2,35.7L70.2,35.7z"/>
</svg>
