<?xml version="1.0" encoding="utf-8"?>
<!-- Generator: Adobe Illustrator 22.0.0, SVG Export Plug-In . SVG Version: 6.00 Build 0)  -->
<svg version="1.1" id="Layer_1" xmlns="http://www.w3.org/2000/svg" xmlns:xlink="http://www.w3.org/1999/xlink" x="0px" y="0px"
	 viewBox="0 0 512 512" style="enable-background:new 0 0 512 512;" xml:space="preserve">
<style type="text/css">
	.st0{fill:#686868;}
</style>
<g>
	<g>
		<polygon class="st0" points="322.8,9.8 322.8,133.6 446.6,133.6 		"/>
	</g>
</g>
<g>
	<g>
		<path class="st0" d="M306.1,167c-9.2,0-16.7-7.5-16.7-16.7V0h-217c-9.2,0-16.7,7.5-16.7,16.7v478.6c0,9.2,7.5,16.7,16.7,16.7
			h367.3c9.2,0,16.7-7.5,16.7-16.7V167H306.1z M272.7,411.8H139.1c-9.2,0-16.7-7.5-16.7-16.7s7.5-16.7,16.7-16.7h133.6
			c9.2,0,16.7,7.5,16.7,16.7S281.9,411.8,272.7,411.8z M372.9,345H139.1c-9.2,0-16.7-7.5-16.7-16.7s7.5-16.7,16.7-16.7h233.7
			c9.2,0,16.7,7.5,16.7,16.7S382.1,345,372.9,345z M372.9,278.3H139.1c-9.2,0-16.7-7.5-16.7-16.7c0-9.2,7.5-16.7,16.7-16.7h233.7
			c9.2,0,16.7,7.5,16.7,16.7C389.6,270.8,382.1,278.3,372.9,278.3z"/>
	</g>
</g>
</svg>
