<?xml version="1.0" encoding="utf-8"?>
<!-- Generator: Adobe Illustrator 22.0.0, SVG Export Plug-In . SVG Version: 6.00 Build 0)  -->
<svg version="1.1" id="Layer_1" xmlns="http://www.w3.org/2000/svg" xmlns:xlink="http://www.w3.org/1999/xlink" x="0px" y="0px"
	 viewBox="0 0 96 93" style="enable-background:new 0 0 96 93;" xml:space="preserve">
<style type="text/css">
	.st0{display:none;}
	.st1{display:inline;fill:#F53743;}
	.st2{fill:#F53743;}
</style>
<g class="st0">
	<path class="st1" d="M48.1,42.5c8.3,0,15.1-6.7,15.1-15.1c0-8.3-6.8-15-15.1-15S33,19.2,33,27.5C33,35.8,39.8,42.5,48.1,42.5z"/>
	<path class="st1" d="M61.2,43.4c-0.5,0-0.9,0.2-1.3,0.5c-3.1,3.1-7.4,4.8-11.8,4.8s-8.6-1.7-11.8-4.8c-0.3-0.3-0.9-0.5-1.3-0.5
		c-9.3,0.7-16.6,8.5-16.6,17.9v8.3c0,6.1,4.9,11.1,11.1,11.1h37.2c6.1,0,11.1-4.9,11.1-11.1v-8.3C77.8,51.9,70.5,44,61.2,43.4z
		 M41,67.4c0.7,0.7,0.7,1.7,0,2.4c-0.3,0.3-0.8,0.5-1.2,0.5c-0.4,0-0.9-0.2-1.2-0.5l-4.3-4.3c-0.7-0.7-0.7-1.7,0-2.4l4.3-4.3
		c0.7-0.7,1.7-0.7,2.4,0c0.7,0.7,0.7,1.8,0,2.5l-3.1,3.1L41,67.4z M52.4,56.4l-4.8,16.9c-0.2,0.8-0.9,1.3-1.6,1.3
		c-0.1,0-0.3,0-0.4-0.1c-0.9-0.3-1.4-1.2-1.2-2.1l4.8-16.9c0.3-0.9,1.2-1.4,2.1-1.2C52.2,54.5,52.7,55.4,52.4,56.4z M61.9,65.6
		l-4.3,4.3c-0.3,0.3-0.8,0.5-1.2,0.5s-0.9-0.2-1.2-0.5c-0.7-0.7-0.7-1.7,0-2.4l3.1-3.1l-3.1-3.2c-0.7-0.7-0.7-1.7,0-2.4
		c0.7-0.7,1.7-0.7,2.4,0l4.3,4.4C62.6,63.9,62.6,64.9,61.9,65.6z"/>
</g>
<g class="st0">
	<path class="st1" d="M30.2,47.7h35.7c8.8,0,12.2-2.3,12.9-8.9v-4.6c0-3.7-1.4-5.2-5.2-5.2H22.4c-3.7,0-5.2,1.4-5.2,5.2v4.6
		C17.9,45.5,21.4,47.7,30.2,47.7z"/>
	<path class="st1" d="M65.9,50.3h-12v9.2c0,1.4-0.5,1.9-1.9,1.9h-7.9c-1.4,0-1.9-0.5-1.9-1.9v-9.2h-12c-5.7,0-10.2-0.9-12.9-4.2v23
		c0,3.7,1.4,5.2,5.2,5.2h51.2c3.7,0,5.2-1.4,5.2-5.2v-23C76.1,49.4,71.5,50.3,65.9,50.3z"/>
	<path class="st1" d="M45.4,50.3c-0.5,0-0.6,0.2-0.6,0.6v7.2c0,0.5,0.2,0.6,0.6,0.6h5.3c0.5,0,0.6-0.2,0.6-0.6V51
		c0-0.5-0.2-0.6-0.6-0.6L45.4,50.3L45.4,50.3z"/>
	<path class="st1" d="M45.6,22.3h4.9c4.2,0,4.6,0.7,4.6,4.9h4.5c0-7.9-0.5-8.5-8.5-8.5h-6.2c-7.9,0-8.5,0.5-8.5,8.5h4.5
		C41,23,41.3,22.3,45.6,22.3z"/>
</g>
<g class="st0">
	<path class="st1" d="M17.8,64.6c0,2.8,2.3,5.1,5.1,5.1h50.2c2.8,0,5.1-2.3,5.1-5.1V34.5H17.8V64.6z M42.8,49.9h14.7
		c0.8,0,1.5,0.7,1.5,1.5c0,0.8-0.7,1.5-1.5,1.5H42.8c-0.8,0-1.5-0.7-1.5-1.5C41.3,50.6,42,49.9,42.8,49.9z M25.2,43.1
		c-0.6-0.6-0.6-1.5,0-2c0.6-0.6,1.5-0.6,2,0l9.3,9.3c0.3,0.3,0.4,0.7,0.4,1s-0.1,0.7-0.4,1l-9.3,9.3c-0.3,0.3-0.7,0.4-1,0.4
		s-0.7-0.1-1-0.4c-0.6-0.6-0.6-1.5,0-2l8.2-8.3L25.2,43.1z"/>
	<path class="st1" d="M73.2,23.3H22.9c-2.8,0-5.1,2.3-5.1,5.1v3.2h60.4v-3.2C78.3,25.6,75.9,23.3,73.2,23.3z M22.3,30
		c-1.4,0-2.5-1.1-2.5-2.5s1.1-2.5,2.5-2.5s2.5,1.1,2.5,2.5S23.7,30,22.3,30z M29.8,30c-1.4,0-2.5-1.1-2.5-2.5s1.1-2.5,2.5-2.5
		s2.5,1.1,2.5,2.5S31.2,30,29.8,30z M37.4,30c-1.4,0-2.5-1.1-2.5-2.5S36,25,37.4,25s2.5,1.1,2.5,2.5S38.8,30,37.4,30z"/>
</g>
<g class="st0">
	<polygon class="st1" points="48.1,4.9 22.4,46.5 48.1,62.5 73.7,46.5 	"/>
	<polygon class="st1" points="73.7,52 48.1,88.1 22.4,52 48.1,67.5 	"/>
</g>
<g class="st0">
	<path class="st1" d="M73.4,23.5h-0.8h-1.1h-1.1H62H31.4h-4H24h-0.6h-2.1c-1.1,0-2.1,0.5-2.8,1.3c-0.3,0.4-0.5,0.8-0.6,1.3
		c-0.1,0.3-0.1,0.6-0.1,0.9v0.4v4v34.8c0,1.9,1.6,3.5,3.5,3.5h52.1c1.9,0,3.5-1.6,3.5-3.5v-9.8H56c-3.3,0-6-2.7-6-6v-3.2v-1.1V45
		v-2.4c0-1.6,0.6-3.1,1.7-4.2c0.9-1,2.2-1.6,3.6-1.8c0.2,0,0.5,0,0.7,0h18H75h1.1h0.7V27C76.9,25.1,75.3,23.5,73.4,23.5z"/>
	<path class="st1" d="M79.4,40c-0.4-0.3-0.8-0.6-1.2-0.7c-0.4-0.1-0.7-0.2-1.1-0.2h-0.1h-0.1h-1.1h-3.9H56c-1.9,0-3.5,1.6-3.5,3.5
		v1.8v1.1v1.1v3.9c0,1.9,1.6,3.5,3.5,3.5h20.9H77c0.4,0,0.8-0.1,1.1-0.2c0.5-0.2,0.9-0.4,1.2-0.7c0.7-0.6,1.1-1.6,1.1-2.6v-7.8
		C80.5,41.6,80.1,40.6,79.4,40z M63.3,47.2c0,1-0.8,1.8-1.8,1.8h-1.2c-1,0-1.8-0.8-1.8-1.8v-1.2c0-0.6,0.3-1.1,0.7-1.4
		c0.3-0.2,0.7-0.4,1.1-0.4h0.3h0.9c1,0,1.8,0.8,1.8,1.8L63.3,47.2L63.3,47.2z"/>
</g>
<path class="st2" d="M79.2,38.9c0-0.1,0-0.1,0-0.2s0-0.1,0-0.2c0-7.6-6.1-13.7-13.7-13.7c-3.1,0-5.3,1.1-7.6,2.8
	c-3-0.8-4.4-1.6-8.4-1.8h-2.5c-4,0.2-5.5,0.9-8.4,1.8c-2.3-1.8-4.5-2.8-7.6-2.8c-7.6,0-13.7,6.1-13.7,13.7c0,0.1,0,0.1,0,0.2
	s0,0.1,0,0.2l-1.4,22.4c0,3.5,2.9,6.4,6.4,6.4h4.5l9.7-15.4H47h2.5h10.6l9.7,15.4h4.5c3.5,0,6.4-2.9,6.4-6.4L79.2,38.9z M33.6,43.1
	h-4.2v4.2h-4.4v-4.2h-4.2v-4.4h4.2v-4.2h4.4v4.2h4.2V43.1z M67.2,32.5c1.7,0,3,1.3,3,3s-1.3,3-3,3s-3-1.3-3-3S65.6,32.5,67.2,32.5z
	 M59.4,40.2c0-1.7,1.3-3,3-3c1.7,0,3,1.3,3,3s-1.3,3-3,3C60.8,43.2,59.4,41.9,59.4,40.2z M67.2,48c-1.7,0-3-1.3-3-3c0-1.7,1.3-3,3-3
	c1.7,0,3,1.3,3,3S68.8,48,67.2,48z M72,43.2c-1.7,0-3-1.3-3-3c0-1.7,1.3-3,3-3s3,1.3,3,3C75,41.9,73.6,43.2,72,43.2z"/>
</svg>
