<?xml version="1.0" encoding="utf-8"?>
<!-- Generator: Adobe Illustrator 22.0.0, SVG Export Plug-In . SVG Version: 6.00 Build 0)  -->
<svg version="1.1" id="Layer_1" xmlns="http://www.w3.org/2000/svg" xmlns:xlink="http://www.w3.org/1999/xlink" x="0px" y="0px"
	 viewBox="0 0 100 96" style="enable-background:new 0 0 100 96;" xml:space="preserve">
<style type="text/css">
	.st0{display:none;fill:#FFFFFF;}
	.st1{fill:#FF6F78;}
</style>
<path class="st0" d="M7.3,56l4.5-10.1c0.8-1.7,1.1-3.5,1.1-5.4C13,25.4,25,13.2,40,13l-0.6,0.6c-2.5,2.5-3.2,6.2-1.8,9.4
	c-3.3,1.3-5.4,4.5-5.4,8v2.7c0,3.5,2.1,6.7,5.4,8c-1.4,3.3-0.6,6.9,1.8,9.4l1.9,1.9c1.6,1.6,3.8,2.5,6.1,2.5c1.1,0,2.3-0.3,3.3-0.7
	c1.3,3.3,4.5,5.4,8,5.4h1.7l4,13.7c0.4,1.5-0.4,3-1.8,3.3l0,0l-28.4,8.1c-1.5,0.4-3-0.4-3.3-1.8l0,0l-2.2-7.7H18.1
	c-2.7,0-4.9-2.2-4.9-4.9l0,0V60.6l-4.2-1.4c-1.2-0.4-1.9-1.8-1.5-3C7.3,56.1,7.3,56.1,7.3,56z M92.4,60.9l-1.8,1.3
	c0.2,1.4,0,2.9-0.4,4.3l1.6,1.7c0.7,0.7,0.7,1.8,0.2,2.5l-1.2,1.8c-0.5,0.8-1.6,1.1-2.5,0.6l-2.1-1c-1.1,0.9-2.5,1.4-3.9,1.8
	l-0.6,2.2c-0.3,0.9-1.1,1.5-2,1.4l-2.1-0.3c-1-0.1-1.7-0.8-1.8-1.8l-0.2-2.3c-1.3-0.6-2.5-1.4-3.5-2.5l-2.2,0.6
	c-0.9,0.3-1.8-0.3-2.3-1.1l-0.9-1.9c-0.4-0.9-0.1-1.8,0.7-2.4l1.9-1.3c-0.2-1.4,0-2.9,0.4-4.3l-1.6-1.7c-0.6-0.7-0.7-1.8-0.2-2.5
	l1.2-1.8c0.5-0.8,1.6-1.1,2.5-0.6l2.1,1c1.1-0.9,2.5-1.4,3.9-1.8l0.6-2.2c0.3-0.9,1.1-1.5,2-1.4l2.1,0.2c1,0.1,1.7,0.8,1.8,1.8
	l0.2,2.3c1.3,0.6,2.5,1.4,3.5,2.5l2.2-0.6c0.9-0.2,1.8,0.3,2.2,1.1l0.9,1.9C93.5,59.4,93.2,60.5,92.4,60.9z M83.9,63.8
	c0.3-2.2-1.4-4.2-3.6-4.4c-2.2-0.2-4.2,1.4-4.4,3.6c-0.2,2.2,1.4,4.2,3.6,4.4l0,0C81.7,67.6,83.7,66,83.9,63.8L83.9,63.8L83.9,63.8z
	 M43.6,43.7l2.2-2.9c-0.7-1.2-1.3-2.6-1.7-4l-3.6-0.5c-1.2-0.2-2.1-1.2-2.1-2.4v-2.7c0-1.2,0.9-2.3,2.1-2.4l3.7-0.5
	c0.4-1.4,0.9-2.7,1.6-4l-2.3-3c-0.7-1-0.6-2.3,0.2-3.2l1.9-1.9c0.9-0.9,2.2-1,3.2-0.2l3,2.3c1.2-0.7,2.6-1.3,4-1.7l0.5-3.8
	c0.2-1.2,1.2-2.1,2.4-2.1h2.7c1.2,0,2.3,0.9,2.4,2.1l0.5,3.7c1.4,0.4,2.7,1,4,1.7l2.9-2.3c1-0.7,2.3-0.6,3.2,0.2l1.9,1.9
	c0.9,0.9,1,2.2,0.2,3.2l-2.3,3c0.7,1.2,1.3,2.6,1.7,4l3.7,0.5c1.3,0.2,2.2,1.2,2.2,2.4v2.7c0,1.2-0.9,2.3-2.1,2.4l-3.7,0.5
	c-0.4,1.4-1,2.7-1.7,4l2.3,2.9c0.7,1,0.6,2.3-0.2,3.2l-1.9,1.9c-0.9,0.9-2.2,1-3.2,0.2l-3-2.3c-1.2,0.7-2.6,1.3-4,1.7L63.8,52
	c-0.2,1.2-1.2,2.1-2.4,2.1h-2.7c-1.2,0-2.2-0.9-2.4-2.1l-0.5-3.7c-1.4-0.4-2.7-1-4-1.7l-2.9,2.3c-1,0.7-2.3,0.6-3.2-0.2l-1.9-1.9
	C43,46,42.9,44.7,43.6,43.7z M54.6,32.5c0,3.1,2.5,5.5,5.5,5.5s5.5-2.5,5.5-5.5l0,0c0-3.1-2.5-5.5-5.5-5.5
	C57.1,26.9,54.6,29.4,54.6,32.5z"/>
<path class="st1" d="M96.1,37.3c0-0.1,0-0.2,0-0.3c0-0.1,0-0.2,0-0.3c0-11.2-9.1-20.2-20.2-20.2c-4.6,0-7.8,1.6-11.3,4.2
	c-4.4-1.3-6.5-2.4-12.5-2.7h-3.7c-5.9,0.3-8.1,1.4-12.5,2.7c-3.4-2.6-6.6-4.2-11.3-4.2c-11.2,0-20.2,9.1-20.2,20.2
	c0,0.1,0,0.2,0,0.3s0,0.2,0,0.3L2.4,70.4c0,5.2,4.2,9.5,9.5,9.5h6.6l14.3-22.7h15.7h3.7h15.7l14.3,22.7h6.6c5.2,0,9.5-4.2,9.5-9.5
	L96.1,37.3z M28.8,43.4h-6.2v6.2h-6.5v-6.2h-6.1v-6.5h6.2v-6.2h6.5v6.2h6.2L28.8,43.4L28.8,43.4z M78.4,27.8c2.4,0,4.4,2,4.4,4.4
	s-2,4.4-4.4,4.4c-2.4,0-4.4-2-4.4-4.4S76,27.8,78.4,27.8z M66.9,39.2c0-2.4,2-4.4,4.4-4.4s4.4,2,4.4,4.4c0,2.4-2,4.4-4.4,4.4
	S66.9,41.7,66.9,39.2z M78.4,50.7c-2.4,0-4.4-2-4.4-4.4s2-4.4,4.4-4.4c2.4,0,4.4,2,4.4,4.4C82.8,48.7,80.8,50.7,78.4,50.7z
	 M85.5,43.6c-2.4,0-4.4-2-4.4-4.4s2-4.4,4.4-4.4s4.4,2,4.4,4.4C89.9,41.7,87.9,43.6,85.5,43.6z"/>
</svg>
