<?xml version="1.0" encoding="utf-8"?>
<!-- Generator: Adobe Illustrator 22.0.0, SVG Export Plug-In . SVG Version: 6.00 Build 0)  -->
<svg version="1.1" id="Ñëîé_1" xmlns="http://www.w3.org/2000/svg" xmlns:xlink="http://www.w3.org/1999/xlink" x="0px" y="0px"
	 viewBox="0 0 80.9 99" style="enable-background:new 0 0 80.9 99;" xml:space="preserve">
<style type="text/css">
	.st0{fill:none;}
	.st1{fill:#F53743;}
</style>
<g>
	<path class="st0" d="M61.7,55.7c2.2,1.5,5.2,1,6.7-1.2l12.4-17.8V19.6L60.5,48.9C59,51.1,59.5,54.1,61.7,55.7z"/>
	<path class="st1" d="M9.8,70.4c-2.3,3.3-3.1,7.2-2.4,10.9c0.7,3.7,2.7,7.1,6,9.4c6.6,4.6,15.7,3,20.3-3.6l15.7-22.3
		c1.5-2.2,4.6-2.7,6.7-1.2c2.2,1.5,2.7,4.5,1.2,6.7c-2.3,3.3-3.1,7.2-2.4,10.9c0.7,3.7,2.7,7.1,6,9.4c6.4,4.5,15.2,3.1,19.9-3.1
		V36.7L68.4,54.5c-1.5,2.2-4.5,2.7-6.7,1.2c-2.2-1.6-2.7-4.6-1.2-6.8l20.3-29.3V0H59L9.8,70.4z"/>
</g>
</svg>
