<?xml version="1.0" encoding="utf-8"?>
<!-- Generator: Adobe Illustrator 22.0.0, SVG Export Plug-In . SVG Version: 6.00 Build 0)  -->
<svg version="1.1" id="Ñëîé_1" xmlns="http://www.w3.org/2000/svg" xmlns:xlink="http://www.w3.org/1999/xlink" x="0px" y="0px"
	 viewBox="0 0 102.3 100.8" style="enable-background:new 0 0 102.3 100.8;" xml:space="preserve">
<style type="text/css">
	.st0{fill:#F53743;}
</style>
<g>
	<path class="st0" d="M102.3,19.8v37.8l-0.6,0.8L81.7,87c-4.6,6.6-13.7,8.2-20.3,3.6c-3.3-2.3-5.3-5.7-6-9.4
		c-0.7-3.7,0.1-7.6,2.4-10.9c1.5-2.2,1-5.2-1.2-6.7c-2.1-1.5-5.2-1-6.7,1.2L34.2,87.1c-4.6,6.6-13.7,8.2-20.3,3.6
		c-3.3-2.3-5.3-5.7-6-9.4c-0.7-3.7,0.1-7.6,2.4-10.9L59.4,0h32.5c0,2.8-0.9,5.7-2.6,8.1L61,48.9c-1.5,2.2-1,5.2,1.2,6.8
		c2.2,1.5,5.2,1,6.7-1.2l20-28.6C92,21.5,97.2,19.3,102.3,19.8z"/>
</g>
</svg>
