<?xml version="1.0" encoding="utf-8"?>
<!-- Generator: Adobe Illustrator 22.0.0, SVG Export Plug-In . SVG Version: 6.00 Build 0)  -->
<svg version="1.1" id="Layer_1" xmlns="http://www.w3.org/2000/svg" xmlns:xlink="http://www.w3.org/1999/xlink" x="0px" y="0px"
	 viewBox="0 0 492 492" style="enable-background:new 0 0 492 492;" xml:space="preserve">
<style type="text/css">
	.st0{fill:#F53743;}
</style>
<g>
	<g>
		<path class="st0" d="M249.4,187l162,162c4.5,4.5,10.4,6.9,16.7,6.9c6.3,0,12.3-2.5,16.8-6.9l14.2-14.2c4.5-4.5,6.9-10.4,6.9-16.8
			c0-6.3-2.5-12.3-6.9-16.7L266.2,108.4c-4.5-4.5-10.4-6.9-16.8-6.9c-6.4,0-12.3,2.4-16.8,6.9L39.9,301.1
			c-4.5,4.5-6.9,10.4-6.9,16.8c0,6.3,2.5,12.3,6.9,16.8l14.2,14.2c9.2,9.2,24.3,9.2,33.5,0L249.4,187z"/>
	</g>
</g>
</svg>
