<?xml version="1.0" encoding="utf-8"?>
<!-- Generator: Adobe Illustrator 22.0.0, SVG Export Plug-In . SVG Version: 6.00 Build 0)  -->
<svg version="1.1" id="Capa_1" xmlns="http://www.w3.org/2000/svg" xmlns:xlink="http://www.w3.org/1999/xlink" x="0px" y="0px"
	 viewBox="0 0 276 278.7" style="enable-background:new 0 0 276 278.7;" xml:space="preserve">
<style type="text/css">
	.st0{fill:none;}
	.st1{fill:#F46C7A;}
</style>
<polygon class="st0" points="38.6,172.4 57.3,163.9 55.7,160.5 37,169 35.3,165.5 32.2,166.9 37.1,177.4 40.2,176 "/>
<path class="st0" d="M36.5,162.3c6.5-2.2,5-9.5,9.7-11.1c1.6-0.6,2.4,0,2.8,1.1c0.4,1.1,0,2-1.6,2.6l-1.6,0.6l1.2,3.4l1.4-0.5
	c3.6-1.3,5.1-3.8,3.9-7.3s-3.9-4.6-7.5-3.4c-6.5,2.2-5,9.5-9.7,11.1c-1.6,0.6-2.4,0.1-2.8-1c-0.4-1.1,0-1.9,1.6-2.5l0.9-0.3
	l-1.1-3.4l-0.7,0.2c-3.6,1.2-5.1,3.7-3.9,7.2C30.3,162.4,33,163.5,36.5,162.3z"/>
<polygon class="st0" points="47.8,88.8 44.4,88.3 43.5,94.7 36.5,93.7 37.2,88.6 33.8,88.1 33.1,93.2 26.5,92.2 27.4,85.8 24,85.3 
	22.4,95.5 46.2,99 "/>
<path class="st0" d="M30.2,83.1c6.6,1.6,9.3-5.3,14.1-4.1c1.7,0.5,2.1,1.3,1.8,2.5c-0.3,1.1-1,1.7-2.7,1.3l-1.7-0.4l-0.9,3.5
	l1.4,0.4c3.7,0.9,6.3-0.4,7.2-4s-0.8-6-4.5-6.9c-6.6-1.6-9.3,5.3-14.1,4.1c-1.6-0.4-2.1-1.2-1.8-2.4c0.3-1.2,1.1-1.7,2.8-1.3l1,0.2
	l0.8-3.4l-0.7-0.2c-3.7-1-6.3,0.3-7.2,3.9C24.8,79.8,26.5,82.2,30.2,83.1z"/>
<path class="st0" d="M52.4,71.7l-8.5-3.1l0.6-1.7c1.3-3.5-0.1-6-3.7-7.3l-2.9-1.1c-3.6-1.3-6.2-0.2-7.5,3.3L28.5,67l22.6,8.2
	L52.4,71.7z M41.2,65.8l-0.6,1.7L33,64.7l0.6-1.7c0.5-1.2,1.2-1.6,2.8-1l3.4,1.2C41.4,63.8,41.7,64.6,41.2,65.8z"/>
<path class="st0" d="M65.4,178.3c-2.1-3.2-4.8-3.7-7.9-1.7l-1.6,1.1c-2.2,1.4-3.2,3.1-2.8,5.2c-1.6-1-3.3-0.8-5.4,0.6L47,184
	c-3.1,2-3.7,4.4-1.6,7.7l3.1,4.8l20.1-13.2L65.4,178.3z M49.3,191.4l-1-1.5c-0.7-1.2-0.4-2.1,1-3l1.1-0.7c1.7-1.1,2.6-0.7,3.4,0.5
	l0.8,1.2L49.3,191.4z M57.5,186l-0.9-1.4c-0.9-1.4-0.8-2.4,1.1-3.6l1.7-1.1c1.5-1,2.4-0.8,3.1,0.3l1.2,1.8L57.5,186z"/>
<path class="st0" d="M91.2,206.4c-2.9-2.3-5.9-1.9-8.3,1.1l-7.9,9.7c-2.5,3-2.3,6,0.6,8.3c2.8,2.4,5.8,1.9,8.3-1.1l7.9-9.7
	C94.3,211.7,94.1,208.7,91.2,206.4z M88.9,212.2l-8.2,10.1c-1.1,1.3-2.1,1.4-3,0.6s-1.1-1.8,0-3.1l8.2-10.1c1.1-1.3,2.1-1.4,3-0.6
	C89.8,209.9,90,210.9,88.9,212.2z"/>
<path class="st0" d="M82.3,199.1l-6.9,6.9l-0.9-0.9c-1.2-1.2-1.2-2.3,0.4-3.9l2.7-2.7c1.4-1.4,1.6-1.7,1.9-2.3l-2.7-2.7
	c-0.4,0.8-1,1.5-1.8,2.3l-2.6,2.6c-1.8,1.8-2.7,3.5-1.9,5.4c-1.8-0.6-3.4,0-5.2,1.7l-1.3,1.3c-2.7,2.7-2.8,5.1,0,7.9l4,4l17-16.9
	L82.3,199.1z M67.8,213.7l-1.3-1.3c-0.9-0.9-0.8-1.9,0.4-3.1l1.7-1.7c1.4-1.4,2.4-1.2,3.4-0.1l1,1L67.8,213.7z"/>
<polygon class="st0" points="74.2,190 71.8,187.1 55.8,200.1 53.3,197 50.6,199.2 57.9,208.3 60.7,206.1 58.2,203 "/>
<rect x="37.9" y="174.1" transform="matrix(0.878 -0.4786 0.4786 0.878 -78.1558 45.3552)" class="st0" width="24" height="3.8"/>
<path class="st0" d="M38.9,55.7l11.2,5.5c3.4,1.7,6.3,0.8,7.9-2.5s0.6-6.1-2.9-7.8l-11.2-5.4c-3.4-1.7-6.3-0.8-7.9,2.5
	S35.5,54.1,38.9,55.7z M39,49.5c0.5-1.1,1.5-1.4,3-0.7l11.7,5.7c1.6,0.8,1.8,1.7,1.3,2.8s-1.5,1.4-3,0.7l-11.6-5.7
	C38.8,51.5,38.6,50.6,39,49.5z"/>
<path class="st0" d="M79.7,27.4c2.6-2.8,2.5-5.5-0.2-8.1l-1.4-1.4c-1.9-1.7-3.7-2.4-5.7-1.5c0.6-1.8,0-3.4-1.8-5.1L70,10.7
	c-2.7-2.6-5.2-2.6-7.9,0.2L58.2,15l17.4,16.7L79.7,27.4z M68.9,18l-1,1.1l-4.6-4.4l1.3-1.3c0.9-1,1.9-0.9,3.1,0.3l0.9,0.9
	C70,15.9,69.9,17,68.9,18z M71.5,20.2c1.2-1.2,2.2-1.2,3.8,0.3l1.5,1.4c1.3,1.2,1.3,2.1,0.4,3l-1.6,1.6l-5.3-5.1L71.5,20.2z"/>
<path class="st0" d="M63.2,48.8l-8.3-5.2l0.7-1.1c0.9-1.5,2-1.7,3.9-0.5l3.2,2c1.7,1.1,2.1,1.1,2.7,1.3l2-3.3
	c-1-0.2-1.7-0.6-2.7-1.2l-3.1-2c-2.2-1.3-4-1.8-5.7-0.6c0.2-1.9-0.7-3.4-2.8-4.7l-1.6-1c-3.1-2-5.5-1.5-7.6,1.8l-3,4.8L61.2,52
	L63.2,48.8z M52.9,40.3l-0.8,1.2l-6.3-3.9l1-1.5c0.7-1.1,1.6-1.2,3.1-0.3l2,1.3C53.5,38.2,53.6,39.2,52.9,40.3z"/>
<polygon class="st0" points="219.3,0 216.6,0 218.9,1 "/>
<polygon class="st0" points="252.3,23.8 254.6,21.2 249.7,16.9 254.3,11.6 258.2,15 260.5,12.4 256.6,9 261,4 265.8,8.3 268.1,5.7 
	261.6,0 259.4,0 244.6,17 "/>
<path class="st0" d="M101.6,2.6c0.9,1.4,0.6,2.4-0.4,3c-1,0.7-2,0.6-2.9-0.9l-0.9-1.5l-3,1.9l0.8,1.3c2.1,3.2,4.9,4.1,8,2.1
	c3.2-2,3.6-4.8,1.6-8.1c-0.1-0.1-0.2-0.3-0.3-0.4h-7.7C98.8,0.4,100.5,0.9,101.6,2.6z"/>
<path class="st0" d="M227.7,5.9c3.3,1.8,6,0.8,7.9-2.5c0.7-1.2,1-2.3,1-3.4h-3.9c-0.1,0.6-0.2,1.2-0.6,1.8c-0.9,1.5-1.9,1.7-2.9,1.1
	s-1.3-1.5-0.5-2.9h-3.8C224.3,2.4,225.1,4.5,227.7,5.9z"/>
<polygon class="st0" points="53.9,25.9 70.1,38.5 72.4,35.5 56.2,22.9 58.6,19.8 55.9,17.7 48.7,26.9 51.4,29 "/>
<polygon class="st0" points="94.8,13.9 84.1,0 79.4,0 91.8,16.2 "/>
<path class="st0" d="M102.2,215l-4.9,7.6l-1.5-1c-3.1-2.1-5.8-1.3-7.9,1.9l-1.7,2.6c-2.1,3.2-1.7,5.9,1.5,8l4.6,3.1l13.1-20.1
	L102.2,215z M91,232.2l-1.5-1c-1-0.6-1.2-1.5-0.3-2.9l2-3c1-1.5,1.8-1.6,2.7-0.9l1.5,1L91,232.2z"/>
<polygon class="st0" points="87.9,19.5 71.9,1.6 69,4.1 85,22 "/>
<polygon class="st0" points="79.2,0 74.4,0 76.2,2.3 "/>
<path class="st0" d="M233.3,214.8l5.1,8.3l-1.1,0.7c-1.5,0.9-2.5,0.6-3.7-1.3l-2-3.2c-1-1.6-1.3-1.9-1.8-2.3l-3.3,2
	c0.8,0.6,1.3,1.3,1.9,2.3l1.9,3.1c1.3,2.1,2.8,3.3,4.8,3c-1,1.5-0.8,3.3,0.5,5.4l1,1.6c2,3.2,4.4,3.9,7.7,1.8l4.8-3l-12.6-20.4
	L233.3,214.8z M238.8,226.7l1.3-0.8l3.9,6.3l-1.5,1c-1.1,0.7-2,0.4-2.9-1.1l-1.2-2C237.4,228.5,237.8,227.5,238.8,226.7z"/>
<path class="st0" d="M253.2,198.9l6.2,6.5l-1.3,1.2c-2.8,2.6-2.7,5.4,0,8.2l2.2,2.3c2.7,2.8,5.5,3,8.2,0.4l4-3.9l-16.6-17.3
	L253.2,198.9z M260.5,209.2l1.3-1.2l5.6,5.9l-1.3,1.2c-0.9,0.8-1.7,0.8-2.9-0.4l-2.5-2.6C259.5,210.9,259.6,210,260.5,209.2z"/>
<rect x="201.4" y="229.1" transform="matrix(0.9637 -0.267 0.267 0.9637 -56.9975 63.025)" class="st0" width="3.7" height="24"/>
<polygon class="st0" points="231.6,239.3 222.6,220.8 219.2,222.5 228.2,241 224.7,242.7 226.2,245.8 236.6,240.7 235.1,237.6 "/>
<path class="st0" d="M250.5,209.2c-2.3-3.1-5.3-3.6-8.2-1.3s-3.2,5.3-0.8,8.3l7.7,9.9c2.3,3.1,5.3,3.6,8.2,1.3
	c3-2.3,3.2-5.2,0.8-8.3L250.5,209.2z M255.4,224.7c-1,0.7-1.9,0.7-3-0.7l-8-10.2c-1-1.4-0.8-2.4,0.1-3.1c1-0.7,1.9-0.7,3,0.7l8,10.2
	C256.5,223,256.3,224,255.4,224.7z"/>
<path class="st0" d="M262.1,26.2c-1.2,1.2-2.2,1.1-3,0.2s-0.9-1.8,0.4-3l1.3-1.2l-2.4-2.6l-1.1,1c-2.8,2.6-3.1,5.5-0.6,8.2
	c2.6,2.7,5.5,2.6,8.3,0c5-4.7,0.7-10.7,4.3-14.1c1.2-1.1,2.1-1.1,3-0.2c0.9,0.9,0.9,1.8-0.4,3l-0.7,0.7l2.4,2.6l0.6-0.5
	c2.8-2.6,3.1-5.5,0.6-8.2s-5.4-2.5-8.4,0C261.4,16.8,265.7,22.8,262.1,26.2z"/>
<path class="st0" d="M167.7,4.8c-59.1,0-107,47.9-107,107s47.9,107,107,107s107-47.9,107-107S226.8,4.8,167.7,4.8z M174.5,149.6
	c-4.6,6.6-13.7,8.2-20.3,3.6c-3.3-2.3-5.3-5.7-6-9.4s0.1-7.6,2.4-10.9c1.5-2.2,1-5.2-1.2-6.7c-2.1-1.5-5.2-1-6.7,1.2L127,149.7
	c-4.6,6.6-13.7,8.2-20.3,3.6c-3.3-2.3-5.3-5.7-6-9.4s0.1-7.6,2.4-10.9l55.1-79c4.6-6.6,13.7-8.2,20.3-3.6c3.3,2.3,5.4,5.7,6,9.4
	c0.7,3.7-0.1,7.6-2.4,10.9l-28.3,40.8c-1.5,2.2-1,5.2,1.2,6.8c2.2,1.5,5.2,1,6.7-1.2l20-28.6c4.6-6.6,13.7-8.2,20.3-3.6
	c3.3,2.3,5.4,5.7,6,9.4c0.7,3.6-0.1,7.6-2.4,10.8L194.5,121L174.5,149.6z M216,155.8c-10.4,0-18.9-8.4-18.9-18.9
	c0-10.4,8.4-18.9,18.9-18.9s18.9,8.5,18.9,18.9S226.5,155.8,216,155.8z"/>
<path class="st0" d="M209.1,226.6c-3.5,1.3-4.7,3.8-3.4,7.3l0.7,1.8c0.9,2.4,2.2,3.9,4.4,3.9c-1.3,1.3-1.4,3.1-0.6,5.4l0.3,0.8
	c1.2,3.5,3.4,4.6,7.1,3.3l5.3-1.9l-8.2-22.6L209.1,226.6z M218.3,245.4l-1.7,0.6c-1.3,0.4-2.1-0.1-2.7-1.7l-0.5-1.3
	c-0.7-1.8-0.1-2.7,1.3-3.1l1.4-0.5L218.3,245.4z M213.3,236.7c-1.6,0.6-2.5,0.2-3.3-1.9l-0.7-2c-0.6-1.7-0.2-2.5,1-2.9l2.1-0.7
	l2.5,6.9L213.3,236.7z"/>
<path class="st0" d="M178.2,239c-0.2-1.7,0.5-2.4,1.7-2.5s2,0.4,2.2,2.1l0.2,1.7l3.6-0.3l-0.1-1.5c-0.4-3.9-2.5-5.9-6.2-5.5
	s-5.4,2.8-5,6.6c0.7,6.9,8.1,7.1,8.6,12c0.2,1.7-0.4,2.4-1.6,2.5c-1.2,0.1-1.9-0.5-2.1-2.2l-0.1-1l-3.6,0.3l0.1,0.8
	c0.4,3.9,2.4,5.9,6.1,5.5c3.7-0.4,5.3-2.8,4.8-6.5C186.1,244.1,178.7,243.9,178.2,239z"/>
<polygon class="st0" points="197.3,251.3 193.3,231.1 189.6,231.8 193.6,252 189.7,252.8 190.4,256.2 201.9,253.9 201.2,250.5 "/>
<polygon class="st0" points="116.8,226.6 122.9,229 120.3,235.5 115.5,233.6 114.2,236.8 119,238.7 116.5,244.9 110.4,242.5 
	109.1,245.7 118.7,249.5 127.7,227.2 118.1,223.4 "/>
<path class="st0" d="M107.6,224.5c0.8-1.5,1.7-1.7,2.8-1.2c1.1,0.6,1.5,1.5,0.7,3l-0.8,1.5l3.2,1.6l0.7-1.3c1.8-3.4,1.1-6.2-2.2-7.9
	s-6-0.6-7.8,2.8c-3.2,6.1,3,10.3,0.7,14.7c-0.8,1.5-1.7,1.7-2.8,1.2c-1.1-0.6-1.4-1.5-0.6-3l0.5-0.9l-3.2-1.6l-0.3,0.7
	c-1.7,3.4-1.1,6.2,2.2,7.9c3.2,1.6,5.9,0.5,7.6-2.8C111.5,233.1,105.3,228.9,107.6,224.5z"/>
<ellipse class="st1" cx="216" cy="136.9" rx="18.9" ry="18.9"/>
<path class="st1" d="M208,94.3c-0.6-3.7-2.7-7.1-6-9.4c-6.6-4.6-15.7-3-20.3,3.6l-20,28.6c-1.5,2.2-4.5,2.7-6.7,1.2
	c-2.2-1.6-2.7-4.6-1.2-6.8l28.3-40.8c2.3-3.3,3.1-7.2,2.4-10.9c-0.6-3.7-2.7-7.1-6-9.4c-6.6-4.6-15.7-3-20.3,3.6l-55.1,79
	c-2.3,3.3-3.1,7.2-2.4,10.9s2.7,7.1,6,9.4c6.6,4.6,15.7,3,20.3-3.6l15.7-22.3c1.5-2.2,4.6-2.7,6.7-1.2c2.2,1.5,2.7,4.5,1.2,6.7
	c-2.3,3.3-3.1,7.2-2.4,10.9c0.7,3.7,2.7,7.1,6,9.4c6.6,4.6,15.7,3,20.3-3.6l20-28.6l11.1-15.9C207.9,101.9,208.7,97.9,208,94.3z"/>
<path class="st1" d="M50.4,186.2l-1.1,0.7c-1.4,0.9-1.7,1.8-1,3l1,1.5l5.3-3.5l-0.8-1.2C53,185.5,52.1,185.1,50.4,186.2z"/>
<path class="st1" d="M77.2,24.9c0.9-0.9,0.9-1.8-0.4-3l-1.5-1.4c-1.6-1.5-2.6-1.5-3.8-0.3l-1.2,1.2l5.3,5.1L77.2,24.9z"/>
<path class="st1" d="M51.9,37.1l-2-1.3c-1.5-0.9-2.4-0.8-3.1,0.3l-1,1.5l6.3,3.9l0.8-1.2C53.6,39.2,53.5,38.2,51.9,37.1z"/>
<path class="st1" d="M39.8,63.2L36.4,62c-1.6-0.6-2.3-0.2-2.8,1L33,64.7l7.6,2.8l0.6-1.7C41.7,64.6,41.4,63.8,39.8,63.2z"/>
<path class="st1" d="M85.9,209.7l-8.2,10.1c-1.1,1.3-0.9,2.3,0,3.1s1.9,0.7,3-0.6l8.2-10.1c1.1-1.3,0.9-2.3,0-3.1
	C88,208.3,87,208.4,85.9,209.7z"/>
<path class="st1" d="M68.6,207.6l-1.7,1.7c-1.2,1.2-1.3,2.2-0.4,3.1l1.3,1.3l5.2-5.2l-1-1C71,206.4,70,206.2,68.6,207.6z"/>
<path class="st1" d="M91.2,225.3l-2,3c-0.9,1.4-0.7,2.3,0.3,2.9l1.5,1l4.4-6.8l-1.5-1C93,223.7,92.2,223.8,91.2,225.3z"/>
<path class="st1" d="M59.4,179.9l-1.7,1.1c-1.9,1.2-2,2.2-1.1,3.6l0.9,1.4l6.2-4l-1.2-1.8C61.8,179.1,60.9,178.9,59.4,179.9z"/>
<path class="st1" d="M40.4,52.3L52,58c1.5,0.7,2.5,0.4,3-0.7c0.5-1.1,0.3-2-1.3-2.8L42,48.8c-1.5-0.7-2.5-0.4-3,0.7
	C38.6,50.6,38.8,51.5,40.4,52.3z"/>
<path class="st1" d="M275.1,30.9c0.4,0.6,0.8,0.8,1.4,0.8v-4.1l-2.5,1.9L275.1,30.9z"/>
<path class="st1" d="M67.7,13.7c-1.2-1.2-2.2-1.3-3.1-0.3l-1.3,1.3l4.6,4.4l1-1.1c1-1,1.1-2.1-0.3-3.4L67.7,13.7z"/>
<path class="st1" d="M274.8,47c0.4,0.7,1,1,1.7,0.9v-4.2l-0.7,0.4C274.3,45,274.2,46,274.8,47z"/>
<path class="st1" d="M247.5,211.4c-1.1-1.4-2-1.4-3-0.7c-0.9,0.7-1.1,1.7-0.1,3.1l8,10.2c1.1,1.4,2,1.4,3,0.7
	c0.9-0.7,1.1-1.7,0.1-3.1L247.5,211.4z"/>
<path class="st1" d="M213.4,243l0.5,1.3c0.6,1.6,1.4,2.1,2.7,1.7l1.7-0.6l-2.2-6l-1.4,0.5C213.3,240.3,212.7,241.2,213.4,243z"/>
<path class="st1" d="M238.4,230.1l1.2,2c0.9,1.5,1.8,1.8,2.9,1.1l1.5-1l-3.9-6.3l-1.3,0.8C237.8,227.5,237.4,228.5,238.4,230.1z"/>
<path class="st1" d="M210.3,229.9c-1.2,0.4-1.6,1.2-1,2.9l0.7,2c0.8,2.1,1.7,2.5,3.3,1.9l1.6-0.6l-2.5-6.9L210.3,229.9z"/>
<path class="st1" d="M263.2,214.7c1.2,1.2,2,1.2,2.9,0.4l1.3-1.2l-5.6-5.9l-1.3,1.2c-0.9,0.8-1,1.7,0.2,2.9L263.2,214.7z"/>
<path class="st1" d="M229.3,2.9c1,0.6,2,0.4,2.9-1.1c0.3-0.6,0.5-1.2,0.6-1.8h-4C228,1.4,228.3,2.3,229.3,2.9z"/>
<path class="st1" d="M268.1,5.7l-2.3,2.6L261,4l-4.4,5l3.9,3.4l-2.3,2.6l-3.9-3.4l-4.6,5.3l4.9,4.3l-2.3,2.6l-7.7-6.8l14.8-17h-22.8
	c-0.1,1.1-0.4,2.2-1,3.4c-1.9,3.3-4.6,4.3-7.9,2.5c-2.6-1.4-3.4-3.5-2.8-5.9h-5.6l-0.4,1l-2.3-1H104.5c0.1,0.1,0.2,0.3,0.3,0.4
	c2,3.3,1.6,6.1-1.6,8.1c-3.1,2-5.9,1.1-8-2.1l-0.8-1.3l3-1.9l0.9,1.5c0.9,1.5,1.9,1.6,2.9,0.9c1-0.6,1.3-1.6,0.4-3
	c-1.1-1.7-2.8-2.2-4.8-2.6H84.1l10.7,13.9l-3,2.3L79.4,0h-0.2l-3,2.3L74.4,0H56C27.4,28.6,9.7,68.1,9.7,111.8
	c0,87.3,70.7,158,158,158c42.2,0,80.5-16.5,108.8-43.4v-17.8c-1.8,0.6-3.7,0.1-5.6-1.6l-0.6-0.5l2.3-2.7l0.8,0.6
	c1.3,1.1,2.2,1,3,0.1l0.1-0.1v-2.1c-0.2-0.2-0.4-0.5-0.7-0.7c-3.8-3.2-9.2,1.8-14.5-2.6c-2.9-2.5-3.3-5.4-0.9-8.2s5.3-2.9,8.2-0.4
	l1.1,1l-2.3,2.7l-1.3-1.1c-1.3-1.1-2.3-0.9-3,0s-0.8,1.9,0.5,3c3.4,2.9,8.1-0.9,12.9,1.6V192l-2.1-1.5l2.1-3v-1.9l-4.9-3.4l-3.7,5.4
	l-2.8-2l5.9-8.5l5.5,3.8V56.7l-0.8-1.7l0.8-0.4v-3c-1.8,0-3.4-0.9-4.6-3c-1.9-3.2-1.1-6,2.2-8l2.4-1.5v-3.8c-1.5,0-2.9-0.8-4.1-2.5
	l-1.1-1.4l-7.2,5.5l-2.3-3l14.7-11.2V0h-14.9L268.1,5.7z M71.9,1.6l16,17.9L85,22L69,4.1L71.9,1.6z M62.1,10.9
	c2.7-2.8,5.2-2.8,7.9-0.2l0.6,0.6c1.8,1.7,2.4,3.3,1.8,5.1c2-0.9,3.8-0.2,5.7,1.5l1.4,1.4c2.7,2.6,2.8,5.3,0.2,8.1l-4.1,4.3L58.2,15
	L62.1,10.9z M55.9,17.7l2.7,2.1l-2.4,3.1l16.2,12.6l-2.3,3L53.9,25.9L51.4,29l-2.7-2.1L55.9,17.7z M43.9,34.3
	c2.1-3.3,4.5-3.8,7.6-1.8l1.6,1c2.1,1.3,3,2.8,2.8,4.7c1.7-1.2,3.5-0.7,5.7,0.6l3.1,2c1,0.6,1.7,1,2.7,1.2l-2,3.3
	c-0.6-0.2-1-0.2-2.7-1.3l-3.2-2c-1.9-1.2-3-1-3.9,0.5l-0.7,1.1l8.3,5.2l-2,3.2L40.9,39.1L43.9,34.3z M36,48c1.6-3.3,4.5-4.2,7.9-2.5
	l11.2,5.4c3.5,1.7,4.5,4.5,2.9,7.8s-4.5,4.2-7.9,2.5l-11.2-5.5C35.5,54.1,34.4,51.3,36,48z M30.4,61.8c1.3-3.5,3.9-4.6,7.5-3.3
	l2.9,1.1c3.6,1.3,5,3.8,3.7,7.3l-0.6,1.7l8.5,3.1l-1.3,3.5L28.5,67L30.4,61.8z M25.7,76.3c0.9-3.6,3.5-4.9,7.2-3.9l0.7,0.2L32.8,76
	l-1-0.2c-1.7-0.4-2.5,0.1-2.8,1.3c-0.3,1.2,0.2,2,1.8,2.4c4.8,1.2,7.5-5.7,14.1-4.1c3.7,0.9,5.4,3.3,4.5,6.9s-3.5,4.9-7.2,4
	l-1.4-0.4l0.9-3.5l1.7,0.4c1.7,0.4,2.4-0.2,2.7-1.3c0.3-1.2-0.1-2-1.8-2.5c-4.8-1.2-7.5,5.7-14.1,4.1C26.5,82.2,24.8,79.8,25.7,76.3
	z M24,85.3l3.4,0.5l-0.9,6.4l6.6,1l0.7-5.1l3.4,0.5l-0.7,5.1l7,1l0.9-6.4l3.4,0.5L46.2,99l-23.8-3.5L24,85.3z M29.1,159
	c-1.2-3.5,0.3-6,3.9-7.2l0.7-0.2l1.1,3.4l-0.9,0.3c-1.6,0.6-2,1.4-1.6,2.5s1.2,1.6,2.8,1c4.7-1.6,3.2-8.9,9.7-11.1
	c3.6-1.2,6.3-0.1,7.5,3.4s-0.3,6-3.9,7.3l-1.4,0.5l-1.2-3.4l1.6-0.6c1.6-0.6,2-1.5,1.6-2.6s-1.2-1.7-2.8-1.1
	c-4.7,1.6-3.2,8.9-9.7,11.1C33,163.5,30.3,162.4,29.1,159z M32.2,166.9l3.1-1.4L37,169l18.7-8.5l1.6,3.4l-18.7,8.5l1.6,3.6l-3.1,1.4
	L32.2,166.9z M38.5,180.1l21.1-11.5l1.8,3.3l-21.1,11.5L38.5,180.1z M45.4,191.7c-2.1-3.3-1.5-5.7,1.6-7.7l0.7-0.5
	c2.1-1.4,3.8-1.6,5.4-0.6c-0.4-2.1,0.6-3.8,2.8-5.2l1.6-1.1c3.1-2,5.8-1.5,7.9,1.7l3.2,5l-20.1,13.2L45.4,191.7z M57.9,208.3
	l-7.3-9.1l2.7-2.2l2.5,3.1l16-13l2.4,2.9l-16,13l2.5,3.1L57.9,208.3z M64,214.7c-2.8-2.8-2.7-5.2,0-7.9l1.3-1.3
	c1.8-1.7,3.4-2.3,5.2-1.7c-0.8-1.9,0.1-3.6,1.9-5.4l2.6-2.6c0.8-0.8,1.4-1.5,1.8-2.3l2.7,2.7c-0.3,0.6-0.5,0.9-1.9,2.3l-2.7,2.7
	c-1.6,1.6-1.6,2.7-0.4,3.9l0.9,0.9l6.9-6.9l2.7,2.7l-17,16.9L64,214.7z M75.6,225.5c-2.9-2.3-3.1-5.3-0.6-8.3l7.9-9.7
	c2.4-3,5.4-3.4,8.3-1.1s3.1,5.3,0.6,8.3l-7.9,9.7C81.4,227.4,78.4,227.9,75.6,225.5z M87.7,234.1c-3.2-2.1-3.6-4.8-1.5-8l1.7-2.6
	c2.1-3.2,4.8-4,7.9-1.9l1.5,1l4.9-7.6l3.2,2.1l-13.1,20.1L87.7,234.1z M100.7,242c-3.3-1.7-3.9-4.5-2.2-7.9l0.3-0.7l3.2,1.6
	l-0.5,0.9c-0.8,1.5-0.5,2.4,0.6,3c1.1,0.5,2,0.3,2.8-1.2c2.3-4.4-3.9-8.6-0.7-14.7c1.8-3.4,4.5-4.5,7.8-2.8s4,4.5,2.2,7.9l-0.7,1.3
	l-3.2-1.6l0.8-1.5c0.8-1.5,0.4-2.4-0.7-3c-1.1-0.5-2-0.3-2.8,1.2c-2.3,4.4,3.9,8.6,0.7,14.7C106.6,242.5,103.9,243.6,100.7,242z
	 M118.7,249.5l-9.6-3.8l1.3-3.2l6.1,2.4l2.5-6.2l-4.8-1.9l1.3-3.2l4.8,1.9l2.6-6.5l-6.1-2.4l1.3-3.2l9.6,3.8L118.7,249.5z
	 M182,257.5c-3.7,0.4-5.7-1.6-6.1-5.5l-0.1-0.8l3.6-0.3l0.1,1c0.2,1.7,0.9,2.3,2.1,2.2c1.2-0.1,1.8-0.8,1.6-2.5
	c-0.5-4.9-7.9-5.1-8.6-12c-0.4-3.8,1.3-6.2,5-6.6c3.7-0.4,5.8,1.6,6.2,5.5l0.1,1.5l-3.6,0.3l-0.2-1.7c-0.2-1.7-1-2.2-2.2-2.1
	c-1.2,0.1-1.9,0.8-1.7,2.5c0.5,4.9,7.9,5.1,8.6,12C187.3,254.7,185.7,257.1,182,257.5z M190.4,256.2l-0.7-3.4l3.9-0.8l-4-20.2
	l3.7-0.7l4,20.2l3.9-0.8l0.7,3.4L190.4,256.2z M204.7,253.1l-6.4-23.1l3.6-1l6.4,23.1L204.7,253.1z M217.6,249.1
	c-3.7,1.3-5.9,0.2-7.1-3.3l-0.3-0.8c-0.8-2.3-0.7-4.1,0.6-5.4c-2.2,0-3.5-1.5-4.4-3.9l-0.7-1.8c-1.3-3.5-0.1-6,3.4-7.3l5.6-2
	l8.2,22.6L217.6,249.1z M226.2,245.8l-1.5-3.1l3.5-1.7l-9-18.5l3.4-1.7l9,18.5l3.5-1.7l1.5,3.1L226.2,245.8z M244.3,236.2
	c-3.3,2.1-5.7,1.4-7.7-1.8l-1-1.6c-1.3-2.1-1.5-3.9-0.5-5.4c-2,0.3-3.5-0.9-4.8-3l-1.9-3.1c-0.6-1-1.1-1.7-1.9-2.3l3.3-2
	c0.5,0.4,0.8,0.7,1.8,2.3l2,3.2c1.2,1.9,2.2,2.2,3.7,1.3l1.1-0.7l-5.1-8.3l3.2-2l12.6,20.4L244.3,236.2z M257.4,227.4
	c-2.9,2.3-5.9,1.8-8.2-1.3l-7.7-9.9c-2.4-3-2.1-6,0.8-8.3c2.9-2.3,5.9-1.8,8.2,1.3l7.7,9.9C260.6,222.2,260.4,225.1,257.4,227.4z
	 M272.5,213.6l-4,3.9c-2.7,2.6-5.5,2.4-8.2-0.4l-2.2-2.3c-2.7-2.8-2.8-5.6,0-8.2l1.3-1.2l-6.2-6.5l2.7-2.6L272.5,213.6z
	 M274.7,111.8c0,59.1-47.9,107-107,107s-107-47.9-107-107s47.9-107,107-107S274.7,52.7,274.7,111.8z M274.8,12.1
	c2.5,2.7,2.2,5.6-0.6,8.2l-0.6,0.5l-2.4-2.6l0.7-0.7c1.3-1.2,1.3-2.1,0.4-3s-1.8-0.9-3,0.2c-3.6,3.4,0.7,9.4-4.3,14.1
	c-2.8,2.6-5.7,2.7-8.3,0c-2.5-2.7-2.2-5.6,0.6-8.2l1.1-1l2.4,2.6l-1.3,1.2c-1.3,1.2-1.2,2.1-0.4,3c0.8,0.9,1.8,1,3-0.2
	c3.6-3.4-0.7-9.4,4.3-14.1C269.4,9.6,272.3,9.4,274.8,12.1z"/>
</svg>
