<?xml version="1.0" encoding="utf-8"?>
<!-- Generator: Adobe Illustrator 22.0.0, SVG Export Plug-In . SVG Version: 6.00 Build 0)  -->
<svg version="1.1" id="Слой_1" xmlns="http://www.w3.org/2000/svg" xmlns:xlink="http://www.w3.org/1999/xlink" x="0px" y="0px"
	 viewBox="0 0 30 30" style="enable-background:new 0 0 30 30;" xml:space="preserve">
<style type="text/css">
	.st0{display:none;}
	.st1{display:inline;}
	.st2{fill:#FFFFFF;}
	.st3{display:inline;fill:#FFFFFF;}
	.st4{display:none;fill:#FFFFFF;}
</style>
<g id="Background_xA0_Image_1_" class="st0">
</g>
<g id="Row_1_1_" class="st0">
	<g class="st1">
		<path class="st2" d="M15.4,4.6C2.3,4.6,2.1,5.7,2.1,14.9s0.3,10.3,13.4,10.3S28.8,24.1,28.8,15S28.5,4.6,15.4,4.6z M19.7,15.3
			l-6,2.8c-0.5,0.3-1,0-1-0.6v-5.3c0-0.5,0.4-0.9,1-0.6l6,2.8C20.2,14.6,20.2,15.1,19.7,15.3z"/>
	</g>
</g>
<g id="Row_1_2_" class="st0">
	<g class="st1">
		<path class="st2" d="M25.6,9.7c0,0.2,0,0.5,0,0.6c0,6.9-5.3,14.9-14.9,14.9c-3,0-5.7-0.8-8-2.3C3,22.9,3.5,23,4,23
			c2.5,0,4.7-0.8,6.5-2.2c-2.3,0-4.3-1.6-4.9-3.6c0.3,0.1,0.6,0.1,1,0.1c0.5,0,0.9-0.1,1.4-0.2c-2.4-0.6-4.3-2.7-4.3-5.2
			c0,0,0,0,0-0.1c0.7,0.4,1.5,0.6,2.4,0.6C4.7,11.6,3.8,10,3.8,8.2c0-0.9,0.3-1.8,0.7-2.6C7.1,8.7,11,10.8,15.3,11
			c-0.1-0.4-0.1-0.7-0.1-1.2c0-2.9,2.3-5.3,5.3-5.3c1.5,0,2.9,0.6,3.8,1.7c1.2-0.3,2.3-0.6,3.3-1.3c-0.4,1.2-1.2,2.2-2.3,2.9
			c0.9-0.1,1.9-0.4,2.9-0.7C27.4,8.1,26.6,9,25.6,9.7z"/>
	</g>
</g>
<g class="st0">
	<path class="st3" d="M22.6,25.4c-0.2,0-0.4-0.1-0.5-0.2l-5.9-4L13,23.5c-0.2,0.2-0.6,0.2-0.9,0.1c-0.3-0.1-0.5-0.3-0.6-0.6L10,17
		l-5.7-2.2c-0.4-0.1-0.6-0.5-0.6-0.9s0.2-0.7,0.6-0.9l21.7-8.6c0.1,0,0.2-0.1,0.3-0.1c0,0,0.1,0,0.1,0c0.2,0,0.4,0.1,0.6,0.3
		c0,0,0,0,0,0.1c0.1,0.2,0.2,0.3,0.2,0.5c0,0,0,0.1,0,0.1c0,0,0,0.1,0,0.1l-3.7,19.2c-0.1,0.3-0.3,0.6-0.6,0.7
		C22.9,25.4,22.7,25.4,22.6,25.4z M16.7,19.4l5.3,3.6L24.8,8l-10.3,9.9L16.7,19.4C16.7,19.3,16.7,19.3,16.7,19.4z M12.3,18.6
		l0.7,2.7l1.5-1.1l-2-1.4C12.4,18.7,12.4,18.6,12.3,18.6z M7.2,13.9l3.9,1.5c0.3,0.1,0.5,0.3,0.6,0.6l0.5,1.9c0-0.2,0.1-0.4,0.3-0.6
		l9.8-9.4L7.2,13.9z"/>
</g>
<path class="st4" d="M27.4,14.7c0-1.5-1.2-2.6-2.7-2.6c-0.7,0-1.4,0.3-1.8,0.7c-1.8-1.2-4.3-1.9-7-2l1.5-4.7l4,0.9l0,0.1
	c0,1.2,1,2.2,2.2,2.2c1.2,0,2.2-1,2.2-2.2s-1-2.2-2.2-2.2c-0.9,0-1.7,0.6-2,1.4l-4.3-1c-0.2,0-0.4,0.1-0.4,0.2l-1.7,5.2
	c-2.8,0-5.4,0.8-7.3,2C7.4,12.3,6.8,12,6.1,12c-1.5,0-2.7,1.2-2.7,2.6c0,1,0.5,1.8,1.3,2.3c-0.1,0.3-0.1,0.6-0.1,0.9
	c0,3.9,4.8,7.1,10.7,7.1s10.7-3.2,10.7-7.1c0-0.3,0-0.5-0.1-0.8C26.9,16.5,27.4,15.7,27.4,14.7z M10.2,16.5c0-0.9,0.7-1.6,1.6-1.6
	s1.6,0.7,1.6,1.6s-0.7,1.6-1.6,1.6S10.2,17.4,10.2,16.5z M19.3,21.2c-0.8,0.8-2,1.2-3.8,1.2l0,0l0,0c-1.8,0-3-0.4-3.8-1.2
	c-0.1-0.1-0.1-0.4,0-0.5c0.1-0.1,0.4-0.1,0.5,0c0.6,0.6,1.7,1,3.3,1l0,0l0,0c1.6,0,2.6-0.3,3.3-1c0.1-0.1,0.4-0.1,0.5,0
	C19.4,20.8,19.4,21,19.3,21.2z M19.1,18.1c-0.9,0-1.6-0.7-1.6-1.6c0-0.9,0.7-1.6,1.6-1.6c0.9,0,1.6,0.7,1.6,1.6
	C20.7,17.4,19.9,18.1,19.1,18.1z"/>
<g id="Row_1_3_" class="st0">
	<g class="st1">
		<path class="st2" d="M26.6,8.5c0,0-0.9,0-0.9,0.9s0,10.9,0,10.9s0,0.9,0.9,0.9h0.3v2.6h-7.7v-2.6h1.3V9.4h-0.1l-3.9,14.5h-3.4
			l-4-14.5H9v11.9h1.3v2.6H3.9v-2.6h0.3c0,0,0.9,0,0.9-0.9c0-0.9,0-10.9,0-10.9s0-0.9-0.9-0.9H3.9V6h8.5l3,11.1h0.1l3-11.1h8.4v2.6
			H26.6z"/>
	</g>
</g>
<g id="Row_1_4_" class="st0">
	<g class="st1">
		<g>
			<path class="st2" d="M9.4,6.4c0,1.3-0.9,2.4-2.4,2.4c-1.4,0-2.4-1-2.4-2.3C4.6,5.2,5.5,4,7,4S9.4,5.2,9.4,6.4z M4.6,25.8V10.1
				h4.8v15.7H4.6z"/>
			<path class="st2" d="M11.8,15.5c0-1.9-0.1-3.5-0.2-4.7H16l0.2,2.1h0.1c0.6-1,2.1-2.4,4.6-2.4c3.1,0,5.3,2,5.3,6.4v8.9h-4.8v-8.3
				c0-1.9-0.7-3.4-2.4-3.4c-1.3,0-1.9,1-2.3,1.9c-0.1,0.2-0.1,0.7-0.1,1.1v8.6h-4.8V15.5z"/>
		</g>
	</g>
</g>
<g id="Row_1_5_" class="st0">
	<g class="st1">
		<path class="st2" d="M19.8,16.7c-1,0-1.7,1.1-1.7,2.5s0.8,2.5,1.7,2.5c1,0,1.8-1.1,1.8-2.5C21.5,17.8,20.7,16.7,19.8,16.7z
			 M26,10.2c0.2-0.5,0.2-3.4-0.9-6c0,0-2.5,0.3-6.2,2.8c-0.8-0.2-2.1-0.4-3.5-0.4S12.8,6.8,12,7.1C8.2,4.5,5.8,4.2,5.8,4.2
			c-1.1,2.7-1.1,5.6-0.9,6c-1.2,1.5-2,3.1-2,5.3c0,9.8,8.1,10,10.2,10c0.5,0,1.4,0,2.4,0c1,0,1.9,0,2.4,0c2.1,0,10.2-0.2,10.2-10
			C28,13.3,27.3,11.7,26,10.2z M15.4,24.4L15.4,24.4c-5.2,0-9.2-0.6-9.2-5.6c0-1.2,0.5-2.3,1.5-3.3c1.6-1.5,4.6-0.7,7.7-0.7l0,0l0,0
			c3.2,0,6.1-0.8,7.7,0.7c1,0.9,1.5,2,1.5,3.3C24.6,23.7,20.6,24.4,15.4,24.4z M11.1,16.7c-1,0-1.7,1.1-1.7,2.5s0.8,2.5,1.7,2.5
			c1,0,1.8-1.1,1.8-2.5S12.1,16.7,11.1,16.7z"/>
	</g>
</g>
<g id="Row_1_6_">
	<g>
		<path class="st2" d="M17.6,27.5V15.7h3.2l0.8-4h-4.2V9c0-1.1,0.6-2.4,2.2-2.4h1.9V2.2h-2.9c-4.2,0-6.1,2.4-6.1,6v3.4H9.2v4h3.2
			v11.9H17.6L17.6,27.5z"/>
	</g>
</g>
<g id="surface1" class="st0">
	<path class="st3" d="M25.1,7.2c-2.3-1.9-6-2.2-6.1-2.2c-0.2,0-0.5,0.1-0.6,0.3c0,0-0.1,0.2-0.2,0.5c1.5,0.3,3.4,0.8,5.1,1.8
		c0.3,0.2,0.4,0.5,0.2,0.8c-0.1,0.2-0.3,0.3-0.5,0.3c-0.1,0-0.2,0-0.3-0.1c-2.9-1.8-6.6-1.9-7.3-1.9c-0.7,0-4.3,0.1-7.3,1.9
		C7.9,8.9,7.5,8.8,7.4,8.5C7.2,8.2,7.3,7.9,7.6,7.7c1.7-1.1,3.6-1.6,5.1-1.8c-0.1-0.3-0.2-0.5-0.2-0.5C12.4,5.2,12.1,5,11.9,5
		c-0.2,0-3.8,0.3-6.1,2.2C4.5,8.4,2.1,15,2.1,20.7c0,0.1,0,0.2,0.1,0.3c1.7,3,6.3,3.7,7.3,3.8c0,0,0,0,0,0c0.2,0,0.4-0.1,0.5-0.2
		l1.1-1.5c-2.9-0.7-4.3-2-4.4-2.1c-0.2-0.2-0.3-0.6,0-0.8c0.2-0.2,0.6-0.3,0.8-0.1c0,0,2.7,2.3,8,2.3c5.3,0,8-2.3,8-2.3
		c0.2-0.2,0.6-0.2,0.8,0.1c0.2,0.2,0.2,0.6-0.1,0.8c-0.1,0.1-1.5,1.3-4.4,2.1l1.1,1.5c0.1,0.1,0.3,0.2,0.5,0.2c0,0,0,0,0,0
		c1,0,5.6-0.8,7.3-3.8c0-0.1,0.1-0.2,0.1-0.3C28.8,15,26.3,8.4,25.1,7.2z M11.7,18.4c-1.1,0-2-1-2-2.3s0.9-2.3,2-2.3s2,1,2,2.3
		S12.8,18.4,11.7,18.4z M19.2,18.4c-1.1,0-2-1-2-2.3s0.9-2.3,2-2.3c1.1,0,2,1,2,2.3S20.3,18.4,19.2,18.4z"/>
</g>
</svg>
