<?xml version="1.0" encoding="UTF-8"?>
<svg width="710px" height="134px" viewBox="0 0 710 134" version="1.1" xmlns="http://www.w3.org/2000/svg" xmlns:xlink="http://www.w3.org/1999/xlink">
    <!-- Generator: Sketch 51 (57462) - http://www.bohemiancoding.com/sketch -->
    <title>Group 2 Copy</title>
    <desc>Created with Sketch.</desc>
    <defs>
        <path d="M226.644715,25.8769 L240.4584,25.8769 L240.4584,109.9602 L226.644715,109.9602 L226.644715,73.564143 L190.609015,73.564143 L190.609015,109.9602 L176.79533,109.9602 L176.79533,25.8769 L190.609015,25.8769 L190.609015,60.351053 L226.644715,60.351053 L226.644715,25.8769 Z M296.91433,49.9007 L310.728015,49.9007 L287.665167,111.882104 C282.019574,127.137217 272.169816,134.824833 258.356131,133.984 L258.356131,121.851981 C266.764461,122.332457 271.328983,118.008173 274.331958,110.080319 L274.932553,108.879129 L249.467325,49.9007 L263.641367,49.9007 L281.539098,93.503897 L296.91433,49.9007 Z M352.889784,48.339153 C369.225968,48.339153 382.799415,62.152838 382.799415,79.93045 C382.799415,97.828181 369.225968,111.521747 352.889784,111.521747 C343.520502,111.521747 336.433481,107.677939 331.868959,101.431751 L331.868959,133.984 L318.896107,133.984 L318.896107,49.9007 L331.868959,49.9007 L331.868959,58.549268 C336.433481,52.182961 343.520502,48.339153 352.889784,48.339153 Z M350.847761,99.14949 C361.658471,99.14949 369.826563,91.101517 369.826563,79.93045 C369.826563,68.759383 361.658471,60.71141 350.847761,60.71141 C340.037051,60.71141 331.868959,68.759383 331.868959,79.93045 C331.868959,91.101517 340.037051,99.14949 350.847761,99.14949 Z M404.781192,85.455924 C406.823215,94.825206 414.390712,99.629966 424.000232,99.629966 C431.207372,99.629966 436.612727,96.386753 439.495583,92.182588 L450.186174,98.428776 C444.6607,106.596868 435.651775,111.521747 423.880113,111.521747 C404.060478,111.521747 391.207745,97.9483 391.207745,79.93045 C391.207745,62.152838 404.060478,48.339153 422.919161,48.339153 C440.816892,48.339153 453.06903,62.753433 453.06903,80.050569 C453.06903,81.852354 452.828792,83.774258 452.588554,85.455924 L404.781192,85.455924 Z M404.661073,74.885452 L439.976059,74.885452 C438.174274,64.555218 430.606777,60.110815 422.799042,60.110815 C413.069403,60.110815 406.462858,65.876527 404.661073,74.885452 Z M477.453187,59.990696 C481.056757,51.822604 488.384016,48.819629 495.951513,48.819629 L495.951513,62.873552 C487.423064,62.272957 477.453187,66.236884 477.453187,79.690212 L477.453187,109.9602 L464.480335,109.9602 L464.480335,49.9007 L477.453187,49.9007 L477.453187,59.990696 Z M505.561033,109.9602 L505.561033,22.27333 L518.533885,22.27333 L518.533885,109.9602 L505.561033,109.9602 Z M561.896844,111.521747 C544.35947,111.521747 530.185428,97.708062 530.185428,79.93045 C530.185428,62.032719 544.35947,48.339153 561.896844,48.339153 C579.554337,48.339153 593.60826,62.032719 593.60826,79.93045 C593.60826,97.708062 579.554337,111.521747 561.896844,111.521747 Z M561.896844,98.909252 C572.467316,98.909252 580.635408,90.861279 580.635408,79.93045 C580.635408,68.999621 572.467316,60.951648 561.896844,60.951648 C551.326372,60.951648 543.15828,68.999621 543.15828,79.93045 C543.15828,90.861279 551.326372,98.909252 561.896844,98.909252 Z M633.728006,111.521747 C616.190632,111.521747 602.01659,97.708062 602.01659,79.93045 C602.01659,62.032719 616.190632,48.339153 633.728006,48.339153 C651.385499,48.339153 665.439422,62.032719 665.439422,79.93045 C665.439422,97.708062 651.385499,111.521747 633.728006,111.521747 Z M633.728006,98.909252 C644.298478,98.909252 652.46657,90.861279 652.46657,79.93045 C652.46657,68.999621 644.298478,60.951648 633.728006,60.951648 C623.157534,60.951648 614.989442,68.999621 614.989442,79.93045 C614.989442,90.861279 623.157534,98.909252 633.728006,98.909252 Z M709.523095,62.393076 L694.628339,62.393076 L694.628339,91.221636 C694.628339,98.909252 699.673337,98.789133 709.523095,98.308657 L709.523095,109.9602 C689.583341,112.36258 681.655487,106.837106 681.655487,91.221636 L681.655487,62.393076 L670.604539,62.393076 L670.604539,49.9007 L681.655487,49.9007 L681.655487,36.927848 L694.628339,33.08404 L694.628339,49.9007 L709.523095,49.9007 L709.523095,62.393076 Z" id="path-1"></path>
    </defs>
    <g id="Page-2" stroke="none" stroke-width="1" fill="none" fill-rule="evenodd">
        <g id="Group-2-Copy" transform="translate(-0.500000, -0.019925)">
            <g id="Hyperloot">
                <use fill="#000000" xlink:href="#path-1"></use>
                <use fill="#1B1B1B" xlink:href="#path-1"></use>
            </g>
            <g id="Group" fill="#F53743" fill-rule="nonzero">
                <path d="M116.2,70.6 C105.7,70.6 97.3,79.1 97.3,89.5 C97.3,100 105.8,108.4 116.2,108.4 C126.7,108.4 135.1,99.9 135.1,89.5 C135.1,79.1 126.7,70.6 116.2,70.6 Z" id="Shape"></path>
                <path d="M108.2,46.9 C107.6,43.2 105.5,39.8 102.2,37.5 C95.6,32.9 86.5,34.5 81.9,41.1 L61.9,69.7 C61.9,69.7 61.9,69.7 61.9,69.7 C60.4,71.9 57.4,72.4 55.2,70.9 C53,69.3 52.5,66.3 54,64.1 L82.3,23.3 C84.6,20 85.4,16.1 84.7,12.4 C84.1,8.7 82,5.3 78.7,3 C72.1,-1.6 63,-4.05231404e-15 58.4,6.6 L3.3,85.6 C1,88.9 0.2,92.8 0.9,96.5 C1.6,100.2 3.6,103.6 6.9,105.9 C13.5,110.5 22.6,108.9 27.2,102.3 L42.9,80 C44.4,77.8 47.5,77.3 49.6,78.8 C51.8,80.3 52.3,83.3 50.8,85.5 C50.8,85.5 50.8,85.5 50.8,85.5 C48.5,88.8 47.7,92.7 48.4,96.4 C49.1,100.1 51.1,103.5 54.4,105.8 C61,110.4 70.1,108.8 74.7,102.2 L94.7,73.6 L105.8,57.7 C108.1,54.5 108.9,50.5 108.2,46.9 Z" id="Shape"></path>
            </g>
        </g>
    </g>
</svg>