<?xml version="1.0" encoding="utf-8"?>
<!-- Generator: Adobe Illustrator 22.1.0, SVG Export Plug-In . SVG Version: 6.00 Build 0)  -->
<svg version="1.1" id="Ñëîé_1" xmlns="http://www.w3.org/2000/svg" xmlns:xlink="http://www.w3.org/1999/xlink" x="0px" y="0px"
	 viewBox="0 0 783.1 249" style="enable-background:new 0 0 783.1 249;" xml:space="preserve">
<style type="text/css">
	.st0{fill:#1B1B1B;}
	.st1{font-family:'Gilroy-Semibold';}
	.st2{font-size:120.119px;}
	.st3{fill:#F53743;}
</style>
<g>
	<g>
		<text transform="matrix(1 0 0 1 202.387 163.9602)" class="st0 st1 st2">Hyperloot</text>
	</g>
	<g>
		<path class="st3" d="M119.4,116.7"/>
		<path class="st3" d="M150.2,124.6c-10.5,0-18.9,8.5-18.9,18.9c0,10.5,8.5,18.9,18.9,18.9c10.5,0,18.9-8.5,18.9-18.9
			C169.1,133.1,160.7,124.6,150.2,124.6z"/>
		<polygon class="st3" points="125.3,96.6 125.3,96.6 125.3,96.6 		"/>
		<path class="st3" d="M142.2,100.9c-0.6-3.7-2.7-7.1-6-9.4c-6.6-4.6-15.7-3-20.3,3.6l-20,28.6c0,0,0,0,0,0
			c-1.5,2.2-4.5,2.7-6.7,1.2l0,0c-2.2-1.6-2.7-4.6-1.2-6.8l28.3-40.8c2.3-3.3,3.1-7.2,2.4-10.9c-0.6-3.7-2.7-7.1-6-9.4
			c-6.6-4.6-15.7-3-20.3,3.6l-55.1,79c-2.3,3.3-3.1,7.2-2.4,10.9c0.7,3.7,2.7,7.1,6,9.4c6.6,4.6,15.7,3,20.3-3.6L76.9,134
			c1.5-2.2,4.6-2.7,6.7-1.2l0,0c2.2,1.5,2.7,4.5,1.2,6.7c0,0,0,0,0,0l0,0c-2.3,3.3-3.1,7.2-2.4,10.9c0.7,3.7,2.7,7.1,6,9.4
			c6.6,4.6,15.7,3,20.3-3.6l20-28.6l11.1-15.9C142.1,108.5,142.9,104.5,142.2,100.9z"/>
	</g>
</g>
</svg>
